<?xml version="1.0" encoding="UTF-8"?>
<svg version="1.1" xmlns="http://www.w3.org/2000/svg" width="600" height="600">
<path d="M0 0 C198 0 396 0 600 0 C600 198 600 396 600 600 C402 600 204 600 0 600 C0 402 0 204 0 0 Z " fill="#EDEDED" transform="translate(0,0)"/>
<path d="M0 0 C0.85722656 0.66515625 1.71445312 1.3303125 2.59765625 2.015625 C8.6344623 6.75549745 14.3503424 11.80712322 20 17 C18.57117786 20.26233121 16.82946748 22.40993909 14.30395508 24.90722656 C13.54589066 25.66191223 12.78782623 26.4165979 12.00679016 27.19415283 C11.18599472 28.00148865 10.36519928 28.80882446 9.51953125 29.640625 C8.67331711 30.48163757 7.82710297 31.32265015 6.95524597 32.18914795 C4.24569471 34.88088337 1.52957923 37.56586526 -1.1875 40.25 C-3.88589762 42.92066362 -6.58278724 45.59280522 -9.27668762 48.26800537 C-10.95233414 49.93152597 -12.63064603 51.5923676 -14.3120575 53.25006104 C-18.49217845 57.39490269 -22.47605311 61.62268842 -26.31370544 66.08538818 C-29.1528843 69.30898003 -32.19706052 72.32009546 -35.24609375 75.34375 C-35.90207047 75.99831177 -36.55804718 76.65287354 -37.23390198 77.32727051 C-39.29940145 79.38723823 -41.36837595 81.44367366 -43.4375 83.5 C-44.85114434 84.9086205 -46.26455786 86.31747267 -47.67773438 87.7265625 C-51.11583149 91.15372133 -54.55704656 94.57772019 -58 98 C-59.28167932 97.04628877 -60.5623231 96.0911858 -61.8425293 95.13549805 C-62.5557988 94.60377487 -63.2690683 94.0720517 -64.00395203 93.5242157 C-66.36675932 91.71993644 -68.58195536 89.77705124 -70.8125 87.8125 C-87.38447161 74.26810013 -108.97937622 64.01480858 -130 60 C-130.83015625 59.81050781 -131.6603125 59.62101562 -132.515625 59.42578125 C-153.79032689 54.70921998 -178.81884279 54.89077499 -200 60 C-201.08764648 60.24943359 -201.08764648 60.24943359 -202.19726562 60.50390625 C-214.10532445 63.28760831 -225.03167906 67.63552601 -236 73 C-236.66660645 73.32371582 -237.33321289 73.64743164 -238.02001953 73.98095703 C-251.22988475 80.47853265 -262.83101347 88.61392204 -273.546875 98.703125 C-275.68299792 100.70318914 -277.87100597 102.57396162 -280.125 104.4375 C-301.31754196 122.95943708 -316.83193217 153.18093646 -324 180 C-324.41185547 181.43666016 -324.41185547 181.43666016 -324.83203125 182.90234375 C-328.62949831 196.83886078 -329.38240517 210.95386056 -329.3125 225.3125 C-329.31100952 226.07525238 -329.30951904 226.83800476 -329.3079834 227.62387085 C-329.16262799 269.10277296 -313.28550934 309.23840385 -285.04296875 339.765625 C-283.32046827 341.64950698 -281.71883633 343.57134631 -280.125 345.5625 C-276.00628514 350.37701955 -270.98532878 354.12940312 -266 358 C-265.47325684 358.42297363 -264.94651367 358.84594727 -264.40380859 359.28173828 C-247.09226993 373.15464839 -226.84723679 382.89595676 -205.5 388.6875 C-204.75266602 388.89044678 -204.00533203 389.09339355 -203.23535156 389.30249023 C-190.77053641 392.51536213 -178.55485417 393.40695634 -165.75 393.375 C-164.96508179 393.37478851 -164.18016357 393.37457703 -163.37145996 393.37435913 C-143.6466556 393.32160431 -124.55602111 390.9341852 -106 384 C-105.21818359 383.71640625 -104.43636719 383.4328125 -103.63085938 383.140625 C-70.07638776 370.87283987 -42.53241407 348.46560675 -26.375 316.1875 C-21.79790584 305.08380861 -18.53199129 293.47897169 -15 282 C-64.83 282 -114.66 282 -166 282 C-166 246.36 -166 210.72 -166 174 C-79.21 174 7.58 174 97 174 C100.52018896 192.77434111 100.52018896 192.77434111 101.1640625 199.734375 C101.24322906 200.56515564 101.32239563 201.39593628 101.40396118 202.25189209 C102.22912815 211.57865652 102.39365357 220.89146981 102.375 230.25 C102.37545319 231.14854706 102.37590637 232.04709412 102.37637329 232.97286987 C102.35105093 250.24862456 100.75044431 266.95772314 98 284 C97.74701467 285.66921311 97.49435938 287.33847631 97.2421875 289.0078125 C96.60779731 293.02894717 95.83533603 297.01616315 95 301 C94.76724365 302.14976318 94.76724365 302.14976318 94.52978516 303.32275391 C82.99150012 359.35796594 50.89855157 415.0867964 5 450 C4.47035645 450.41137207 3.94071289 450.82274414 3.39501953 451.24658203 C-20.18263868 469.51267838 -46.73850201 482.67128262 -75 492 C-75.75474609 492.24975586 -76.50949219 492.49951172 -77.28710938 492.75683594 C-88.66356677 496.45495396 -100.21237327 499.0085717 -112 501 C-113.59497314 501.277229 -113.59497314 501.277229 -115.22216797 501.56005859 C-146.39979312 506.8014501 -179.83482268 507.73062454 -211 502 C-212.04333496 501.81195801 -213.08666992 501.62391602 -214.16162109 501.43017578 C-239.69464969 496.66335313 -264.73397988 488.5816048 -288 477 C-288.72928711 476.64083496 -289.45857422 476.28166992 -290.20996094 475.91162109 C-321.79304218 460.21873356 -352.25456188 437.05387435 -375 410 C-375.70624512 409.17024658 -375.70624512 409.17024658 -376.42675781 408.32373047 C-400.45962165 379.98251769 -418.10538326 348.07639216 -430.00390625 312.93652344 C-430.61800133 311.12614707 -431.24109924 309.3187607 -431.87890625 307.51660156 C-436.02503968 295.77423091 -438.26744149 283.81223776 -440.3125 271.5625 C-440.44191986 270.79014008 -440.57133972 270.01778015 -440.7046814 269.22201538 C-443.12567532 254.59865217 -444.237188 240.2143397 -444.25 225.375 C-444.25067474 224.66134277 -444.25134949 223.94768555 -444.25204468 223.21240234 C-444.16112698 161.93897559 -423.47539351 99.0364639 -384.25097656 51.52294922 C-383.08500245 50.10348268 -381.94379647 48.66377097 -380.8046875 47.22265625 C-358.96903537 19.78708595 -331.56815876 -2.88211651 -301 -20 C-300.23236328 -20.4316748 -299.46472656 -20.86334961 -298.67382812 -21.30810547 C-285.23153621 -28.79168972 -271.48451946 -34.8295766 -257 -40 C-256.19916992 -40.28713867 -255.39833984 -40.57427734 -254.57324219 -40.87011719 C-170.21270166 -70.56646033 -70.35146672 -55.61215497 0 0 Z " fill="#2EA24B" transform="translate(471,75)"/>
<path d="M0 0 C0.85722656 0.66515625 1.71445312 1.3303125 2.59765625 2.015625 C8.6344623 6.75549745 14.3503424 11.80712322 20 17 C18.57117786 20.26233121 16.82946748 22.40993909 14.30395508 24.90722656 C13.54589066 25.66191223 12.78782623 26.4165979 12.00679016 27.19415283 C11.18599472 28.00148865 10.36519928 28.80882446 9.51953125 29.640625 C8.67331711 30.48163757 7.82710297 31.32265015 6.95524597 32.18914795 C4.24569471 34.88088337 1.52957923 37.56586526 -1.1875 40.25 C-3.88589762 42.92066362 -6.58278724 45.59280522 -9.27668762 48.26800537 C-10.95233414 49.93152597 -12.63064603 51.5923676 -14.3120575 53.25006104 C-18.49217845 57.39490269 -22.47605311 61.62268842 -26.31370544 66.08538818 C-29.1528843 69.30898003 -32.19706052 72.32009546 -35.24609375 75.34375 C-35.90207047 75.99831177 -36.55804718 76.65287354 -37.23390198 77.32727051 C-39.29940145 79.38723823 -41.36837595 81.44367366 -43.4375 83.5 C-44.85114434 84.9086205 -46.26455786 86.31747267 -47.67773438 87.7265625 C-51.11583149 91.15372133 -54.55704656 94.57772019 -58 98 C-59.28167932 97.04628877 -60.5623231 96.0911858 -61.8425293 95.13549805 C-62.5557988 94.60377487 -63.2690683 94.0720517 -64.00395203 93.5242157 C-66.36675932 91.71993644 -68.58195536 89.77705124 -70.8125 87.8125 C-87.38447161 74.26810013 -108.97937622 64.01480858 -130 60 C-130.83015625 59.81050781 -131.6603125 59.62101562 -132.515625 59.42578125 C-153.79032689 54.70921998 -178.81884279 54.89077499 -200 60 C-201.08764648 60.24943359 -201.08764648 60.24943359 -202.19726562 60.50390625 C-214.10532445 63.28760831 -225.03167906 67.63552601 -236 73 C-236.66660645 73.32371582 -237.33321289 73.64743164 -238.02001953 73.98095703 C-251.22988475 80.47853265 -262.83101347 88.61392204 -273.546875 98.703125 C-275.68299792 100.70318914 -277.87100597 102.57396162 -280.125 104.4375 C-301.31754196 122.95943708 -316.83193217 153.18093646 -324 180 C-324.41185547 181.43666016 -324.41185547 181.43666016 -324.83203125 182.90234375 C-328.62949831 196.83886078 -329.38240517 210.95386056 -329.3125 225.3125 C-329.31100952 226.07525238 -329.30951904 226.83800476 -329.3079834 227.62387085 C-329.2524361 243.47495542 -327.64383762 258.10079794 -322.671875 273.21484375 C-321.96527756 276.14393663 -321.99288301 277.23076761 -323 280 C-325.20794726 282.01312838 -327.38151855 283.82141081 -329.75 285.625 C-330.42957764 286.15496582 -331.10915527 286.68493164 -331.80932617 287.23095703 C-333.86538935 288.83062359 -335.93145066 290.41652826 -338 292 C-339.08506312 292.83798814 -340.16973404 293.67648452 -341.25390625 294.515625 C-343.33035994 296.11738493 -345.40924314 297.71534719 -347.4921875 299.30859375 C-357.05269039 306.63017446 -366.53736347 314.05251614 -376 321.5 C-384.30605423 328.0351339 -392.63683512 334.5380846 -401 341 C-401.63905273 341.49435547 -402.27810547 341.98871094 -402.93652344 342.49804688 C-404.61990341 343.79631612 -406.30851077 345.08732294 -408 346.375 C-409.3921875 347.43847656 -409.3921875 347.43847656 -410.8125 348.5234375 C-413 350 -413 350 -415 350 C-427.81304506 324.24448519 -436.72387648 296.43029733 -441 268 C-441.23042247 266.58441528 -441.46203997 265.16902411 -441.6953125 263.75390625 C-443.67588625 251.01965391 -444.23888471 238.24913795 -444.25 225.375 C-444.25067474 224.66134277 -444.25134949 223.94768555 -444.25204468 223.21240234 C-444.16112698 161.93897559 -423.47539351 99.0364639 -384.25097656 51.52294922 C-383.08500245 50.10348268 -381.94379647 48.66377097 -380.8046875 47.22265625 C-358.96903537 19.78708595 -331.56815876 -2.88211651 -301 -20 C-300.23236328 -20.4316748 -299.46472656 -20.86334961 -298.67382812 -21.30810547 C-285.23153621 -28.79168972 -271.48451946 -34.8295766 -257 -40 C-256.19916992 -40.28713867 -255.39833984 -40.57427734 -254.57324219 -40.87011719 C-170.21270166 -70.56646033 -70.35146672 -55.61215497 0 0 Z " fill="#E63C2F" transform="translate(471,75)"/>
<path d="M0 0 C86.79 0 173.58 0 263 0 C266.52018896 18.77434111 266.52018896 18.77434111 267.1640625 25.734375 C267.24322906 26.56515564 267.32239563 27.39593628 267.40396118 28.25189209 C268.22912815 37.57865652 268.39365357 46.89146981 268.375 56.25 C268.37567978 57.59782059 268.37567978 57.59782059 268.37637329 58.97286987 C268.35105093 76.24862456 266.75044431 92.95772314 264 110 C263.74701467 111.66921311 263.49435938 113.33847631 263.2421875 115.0078125 C262.60779731 119.02894717 261.83533603 123.01616315 261 127 C260.8448291 127.76650879 260.6896582 128.53301758 260.52978516 129.32275391 C250.02087193 180.35886362 223.37064095 226.95351562 186 263 C181.77476975 261.58397689 179.02973368 259.54649988 175.6875 256.625 C171.01243236 252.61053974 166.2068946 248.84743799 161.25 245.1875 C155.71651394 241.09141179 150.31683035 236.87354277 145 232.5 C139.12480813 227.66882427 133.12811164 223.05321995 127.01318359 218.53051758 C121.40773815 214.36185441 116.00698707 209.96984106 110.61328125 205.5324707 C105.57955107 201.41356298 100.4291968 197.5890123 95 194 C97.58478113 191.32809141 100.21573894 188.98017405 103.1875 186.75 C130.2789771 165.82172309 140.99876752 140.50400557 151 108 C101.17 108 51.34 108 0 108 C0 72.36 0 36.72 0 0 Z " fill="#3C7FF2" transform="translate(305,249)"/>
<path d="M0 0 C4.83817994 1.53942089 8.15786859 4.31369694 12 7.5 C13.34684219 8.59735407 14.69451166 9.69369347 16.04296875 10.7890625 C16.71247559 11.3346582 17.38198242 11.88025391 18.07177734 12.44238281 C20.78437597 14.63361847 23.54272635 16.75631673 26.3125 18.875 C37.49736848 27.43183502 48.59933709 36.09651213 59.6628418 44.80957031 C64.50913188 48.62299874 69.37882179 52.40594064 74.25 56.1875 C80.54246682 61.07339983 86.80633757 65.98904698 93 71 C92.60167969 72.77503906 92.60167969 72.77503906 92.1953125 74.5859375 C88.40065907 91.53897783 85.76556611 107.45675294 85.75 124.875 C85.74899292 125.65523529 85.74798584 126.43547058 85.74694824 127.23934937 C85.76092513 143.24638078 87.30619497 157.94890426 92.328125 173.21484375 C93.03472244 176.14393663 93.00711699 177.23076761 92 180 C89.79205274 182.01312838 87.61848145 183.82141081 85.25 185.625 C84.57042236 186.15496582 83.89084473 186.68493164 83.19067383 187.23095703 C81.13461065 188.83062359 79.06854934 190.41652826 77 192 C75.91493688 192.83798814 74.83026596 193.67648452 73.74609375 194.515625 C71.66964006 196.11738493 69.59075686 197.71534719 67.5078125 199.30859375 C57.94730961 206.63017446 48.46263653 214.05251614 39 221.5 C30.69394577 228.0351339 22.36316488 234.5380846 14 241 C13.36094727 241.49435547 12.72189453 241.98871094 12.06347656 242.49804688 C10.38009659 243.79631612 8.69148923 245.08732294 7 246.375 C5.6078125 247.43847656 5.6078125 247.43847656 4.1875 248.5234375 C2 250 2 250 0 250 C-12.81304506 224.24448519 -21.72387648 196.43029733 -26 168 C-26.23042247 166.58441528 -26.46203997 165.16902411 -26.6953125 163.75390625 C-28.67588625 151.01965391 -29.23888471 138.24913795 -29.25 125.375 C-29.25067474 124.66134277 -29.25134949 123.94768555 -29.25204468 123.21240234 C-29.18901587 80.73452273 -19.61239921 37.82844638 0 0 Z " fill="#F8B504" transform="translate(56,175)"/>
<path d="M0 0 C4.95 0 9.9 0 15 0 C15 4.95 15 9.9 15 15 C10.05 15 5.1 15 0 15 C0 10.05 0 5.1 0 0 Z " fill="#FFFFFF" transform="translate(0,0)"/>
<path d="M0 0 C4.95 0 9.9 0 15 0 C15 4.62 15 9.24 15 14 C10.05 14 5.1 14 0 14 C0 9.38 0 4.76 0 0 Z " fill="#FFFFFF" transform="translate(0,571)"/>
<path d="M0 0 C4.95 0 9.9 0 15 0 C15 4.62 15 9.24 15 14 C10.05 14 5.1 14 0 14 C0 9.38 0 4.76 0 0 Z " fill="#FFFFFF" transform="translate(0,541)"/>
<path d="M0 0 C4.95 0 9.9 0 15 0 C15 4.62 15 9.24 15 14 C10.05 14 5.1 14 0 14 C0 9.38 0 4.76 0 0 Z " fill="#FFFFFF" transform="translate(0,511)"/>
<path d="M0 0 C4.95 0 9.9 0 15 0 C15 4.62 15 9.24 15 14 C10.05 14 5.1 14 0 14 C0 9.38 0 4.76 0 0 Z " fill="#FFFFFF" transform="translate(0,481)"/>
<path d="M0 0 C4.95 0 9.9 0 15 0 C15 4.62 15 9.24 15 14 C10.05 14 5.1 14 0 14 C0 9.38 0 4.76 0 0 Z " fill="#FFFFFF" transform="translate(0,451)"/>
<path d="M0 0 C4.95 0 9.9 0 15 0 C15 4.62 15 9.24 15 14 C10.05 14 5.1 14 0 14 C0 9.38 0 4.76 0 0 Z " fill="#FFFFFF" transform="translate(0,421)"/>
<path d="M0 0 C4.95 0 9.9 0 15 0 C15 4.62 15 9.24 15 14 C10.05 14 5.1 14 0 14 C0 9.38 0 4.76 0 0 Z " fill="#FFFFFF" transform="translate(0,391)"/>
<path d="M0 0 C4.95 0 9.9 0 15 0 C15 4.62 15 9.24 15 14 C10.05 14 5.1 14 0 14 C0 9.38 0 4.76 0 0 Z " fill="#FFFFFF" transform="translate(0,361)"/>
<path d="M0 0 C4.95 0 9.9 0 15 0 C15 4.62 15 9.24 15 14 C10.05 14 5.1 14 0 14 C0 9.38 0 4.76 0 0 Z " fill="#FFFFFF" transform="translate(0,331)"/>
<path d="M0 0 C4.95 0 9.9 0 15 0 C15 4.62 15 9.24 15 14 C10.05 14 5.1 14 0 14 C0 9.38 0 4.76 0 0 Z " fill="#FFFFFF" transform="translate(0,301)"/>
<path d="M0 0 C4.95 0 9.9 0 15 0 C15 4.62 15 9.24 15 14 C10.05 14 5.1 14 0 14 C0 9.38 0 4.76 0 0 Z " fill="#FFFFFF" transform="translate(0,271)"/>
<path d="M0 0 C4.95 0 9.9 0 15 0 C15 4.62 15 9.24 15 14 C10.05 14 5.1 14 0 14 C0 9.38 0 4.76 0 0 Z " fill="#FFFFFF" transform="translate(0,241)"/>
<path d="M0 0 C4.95 0 9.9 0 15 0 C15 4.62 15 9.24 15 14 C10.05 14 5.1 14 0 14 C0 9.38 0 4.76 0 0 Z " fill="#FFFFFF" transform="translate(0,211)"/>
<path d="M0 0 C4.95 0 9.9 0 15 0 C15 4.62 15 9.24 15 14 C10.05 14 5.1 14 0 14 C0 9.38 0 4.76 0 0 Z " fill="#FFFFFF" transform="translate(0,181)"/>
<path d="M0 0 C4.95 0 9.9 0 15 0 C15 4.62 15 9.24 15 14 C10.05 14 5.1 14 0 14 C0 9.38 0 4.76 0 0 Z " fill="#FFFFFF" transform="translate(0,151)"/>
<path d="M0 0 C4.95 0 9.9 0 15 0 C15 4.62 15 9.24 15 14 C10.05 14 5.1 14 0 14 C0 9.38 0 4.76 0 0 Z " fill="#FFFFFF" transform="translate(0,121)"/>
<path d="M0 0 C4.95 0 9.9 0 15 0 C15 4.62 15 9.24 15 14 C10.05 14 5.1 14 0 14 C0 9.38 0 4.76 0 0 Z " fill="#FFFFFF" transform="translate(0,91)"/>
<path d="M0 0 C4.95 0 9.9 0 15 0 C15 4.62 15 9.24 15 14 C10.05 14 5.1 14 0 14 C0 9.38 0 4.76 0 0 Z " fill="#FFFFFF" transform="translate(0,61)"/>
<path d="M0 0 C4.95 0 9.9 0 15 0 C15 4.62 15 9.24 15 14 C10.05 14 5.1 14 0 14 C0 9.38 0 4.76 0 0 Z " fill="#FFFFFF" transform="translate(0,31)"/>
<path d="M0 0 C4.62 0 9.24 0 14 0 C14 4.95 14 9.9 14 15 C9.38 15 4.76 15 0 15 C0 10.05 0 5.1 0 0 Z " fill="#FFFFFF" transform="translate(571,0)"/>
<path d="M0 0 C4.62 0 9.24 0 14 0 C14 4.95 14 9.9 14 15 C9.38 15 4.76 15 0 15 C0 10.05 0 5.1 0 0 Z " fill="#FFFFFF" transform="translate(541,0)"/>
<path d="M0 0 C4.62 0 9.24 0 14 0 C14 4.95 14 9.9 14 15 C9.38 15 4.76 15 0 15 C0 10.05 0 5.1 0 0 Z " fill="#FFFFFF" transform="translate(511,0)"/>
<path d="M0 0 C4.62 0 9.24 0 14 0 C14 4.95 14 9.9 14 15 C9.38 15 4.76 15 0 15 C0 10.05 0 5.1 0 0 Z " fill="#FFFFFF" transform="translate(481,0)"/>
<path d="M0 0 C4.62 0 9.24 0 14 0 C14 4.95 14 9.9 14 15 C9.38 15 4.76 15 0 15 C0 10.05 0 5.1 0 0 Z " fill="#FFFFFF" transform="translate(451,0)"/>
<path d="M0 0 C4.62 0 9.24 0 14 0 C14 4.95 14 9.9 14 15 C9.38 15 4.76 15 0 15 C0 10.05 0 5.1 0 0 Z " fill="#FFFFFF" transform="translate(421,0)"/>
<path d="M0 0 C4.62 0 9.24 0 14 0 C14 4.95 14 9.9 14 15 C9.38 15 4.76 15 0 15 C0 10.05 0 5.1 0 0 Z " fill="#FFFFFF" transform="translate(391,0)"/>
<path d="M0 0 C4.62 0 9.24 0 14 0 C14 4.95 14 9.9 14 15 C9.38 15 4.76 15 0 15 C0 10.05 0 5.1 0 0 Z " fill="#FFFFFF" transform="translate(361,0)"/>
<path d="M0 0 C4.62 0 9.24 0 14 0 C14 4.95 14 9.9 14 15 C9.38 15 4.76 15 0 15 C0 10.05 0 5.1 0 0 Z " fill="#FFFFFF" transform="translate(331,0)"/>
<path d="M0 0 C4.62 0 9.24 0 14 0 C14 4.95 14 9.9 14 15 C9.38 15 4.76 15 0 15 C0 10.05 0 5.1 0 0 Z " fill="#FFFFFF" transform="translate(301,0)"/>
<path d="M0 0 C4.62 0 9.24 0 14 0 C14 4.95 14 9.9 14 15 C9.38 15 4.76 15 0 15 C0 10.05 0 5.1 0 0 Z " fill="#FFFFFF" transform="translate(271,0)"/>
<path d="M0 0 C4.62 0 9.24 0 14 0 C14 4.95 14 9.9 14 15 C9.38 15 4.76 15 0 15 C0 10.05 0 5.1 0 0 Z " fill="#FFFFFF" transform="translate(241,0)"/>
<path d="M0 0 C4.62 0 9.24 0 14 0 C14 4.95 14 9.9 14 15 C9.38 15 4.76 15 0 15 C0 10.05 0 5.1 0 0 Z " fill="#FFFFFF" transform="translate(211,0)"/>
<path d="M0 0 C4.62 0 9.24 0 14 0 C14 4.95 14 9.9 14 15 C9.38 15 4.76 15 0 15 C0 10.05 0 5.1 0 0 Z " fill="#FFFFFF" transform="translate(181,0)"/>
<path d="M0 0 C4.62 0 9.24 0 14 0 C14 4.95 14 9.9 14 15 C9.38 15 4.76 15 0 15 C0 10.05 0 5.1 0 0 Z " fill="#FFFFFF" transform="translate(151,0)"/>
<path d="M0 0 C4.62 0 9.24 0 14 0 C14 4.95 14 9.9 14 15 C9.38 15 4.76 15 0 15 C0 10.05 0 5.1 0 0 Z " fill="#FFFFFF" transform="translate(121,0)"/>
<path d="M0 0 C4.62 0 9.24 0 14 0 C14 4.95 14 9.9 14 15 C9.38 15 4.76 15 0 15 C0 10.05 0 5.1 0 0 Z " fill="#FFFFFF" transform="translate(91,0)"/>
<path d="M0 0 C4.62 0 9.24 0 14 0 C14 4.95 14 9.9 14 15 C9.38 15 4.76 15 0 15 C0 10.05 0 5.1 0 0 Z " fill="#FFFFFF" transform="translate(61,0)"/>
<path d="M0 0 C4.62 0 9.24 0 14 0 C14 4.95 14 9.9 14 15 C9.38 15 4.76 15 0 15 C0 10.05 0 5.1 0 0 Z " fill="#FFFFFF" transform="translate(31,0)"/>
<path d="M0 0 C4.62 0 9.24 0 14 0 C14 4.62 14 9.24 14 14 C9.38 14 4.76 14 0 14 C0 9.38 0 4.76 0 0 Z " fill="#FFFFFF" transform="translate(586,586)"/>
<path d="M0 0 C4.62 0 9.24 0 14 0 C14 4.62 14 9.24 14 14 C9.38 14 4.76 14 0 14 C0 9.38 0 4.76 0 0 Z " fill="#FFFFFF" transform="translate(556,586)"/>
<path d="M0 0 C4.62 0 9.24 0 14 0 C14 4.62 14 9.24 14 14 C9.38 14 4.76 14 0 14 C0 9.38 0 4.76 0 0 Z " fill="#FFFFFF" transform="translate(526,586)"/>
<path d="M0 0 C4.62 0 9.24 0 14 0 C14 4.62 14 9.24 14 14 C9.38 14 4.76 14 0 14 C0 9.38 0 4.76 0 0 Z " fill="#FFFFFF" transform="translate(496,586)"/>
<path d="M0 0 C4.62 0 9.24 0 14 0 C14 4.62 14 9.24 14 14 C9.38 14 4.76 14 0 14 C0 9.38 0 4.76 0 0 Z " fill="#FFFFFF" transform="translate(466,586)"/>
<path d="M0 0 C4.62 0 9.24 0 14 0 C14 4.62 14 9.24 14 14 C9.38 14 4.76 14 0 14 C0 9.38 0 4.76 0 0 Z " fill="#FFFFFF" transform="translate(436,586)"/>
<path d="M0 0 C4.62 0 9.24 0 14 0 C14 4.62 14 9.24 14 14 C9.38 14 4.76 14 0 14 C0 9.38 0 4.76 0 0 Z " fill="#FFFFFF" transform="translate(406,586)"/>
<path d="M0 0 C4.62 0 9.24 0 14 0 C14 4.62 14 9.24 14 14 C9.38 14 4.76 14 0 14 C0 9.38 0 4.76 0 0 Z " fill="#FFFFFF" transform="translate(376,586)"/>
<path d="M0 0 C4.62 0 9.24 0 14 0 C14 4.62 14 9.24 14 14 C9.38 14 4.76 14 0 14 C0 9.38 0 4.76 0 0 Z " fill="#FFFFFF" transform="translate(346,586)"/>
<path d="M0 0 C4.62 0 9.24 0 14 0 C14 4.62 14 9.24 14 14 C9.38 14 4.76 14 0 14 C0 9.38 0 4.76 0 0 Z " fill="#FFFFFF" transform="translate(316,586)"/>
<path d="M0 0 C4.62 0 9.24 0 14 0 C14 4.62 14 9.24 14 14 C9.38 14 4.76 14 0 14 C0 9.38 0 4.76 0 0 Z " fill="#FFFFFF" transform="translate(286,586)"/>
<path d="M0 0 C4.62 0 9.24 0 14 0 C14 4.62 14 9.24 14 14 C9.38 14 4.76 14 0 14 C0 9.38 0 4.76 0 0 Z " fill="#FFFFFF" transform="translate(256,586)"/>
<path d="M0 0 C4.62 0 9.24 0 14 0 C14 4.62 14 9.24 14 14 C9.38 14 4.76 14 0 14 C0 9.38 0 4.76 0 0 Z " fill="#FFFFFF" transform="translate(226,586)"/>
<path d="M0 0 C4.62 0 9.24 0 14 0 C14 4.62 14 9.24 14 14 C9.38 14 4.76 14 0 14 C0 9.38 0 4.76 0 0 Z " fill="#FFFFFF" transform="translate(196,586)"/>
<path d="M0 0 C4.62 0 9.24 0 14 0 C14 4.62 14 9.24 14 14 C9.38 14 4.76 14 0 14 C0 9.38 0 4.76 0 0 Z " fill="#FFFFFF" transform="translate(166,586)"/>
<path d="M0 0 C4.62 0 9.24 0 14 0 C14 4.62 14 9.24 14 14 C9.38 14 4.76 14 0 14 C0 9.38 0 4.76 0 0 Z " fill="#FFFFFF" transform="translate(136,586)"/>
<path d="M0 0 C4.62 0 9.24 0 14 0 C14 4.62 14 9.24 14 14 C9.38 14 4.76 14 0 14 C0 9.38 0 4.76 0 0 Z " fill="#FFFFFF" transform="translate(106,586)"/>
<path d="M0 0 C4.62 0 9.24 0 14 0 C14 4.62 14 9.24 14 14 C9.38 14 4.76 14 0 14 C0 9.38 0 4.76 0 0 Z " fill="#FFFFFF" transform="translate(76,586)"/>
<path d="M0 0 C4.62 0 9.24 0 14 0 C14 4.62 14 9.24 14 14 C9.38 14 4.76 14 0 14 C0 9.38 0 4.76 0 0 Z " fill="#FFFFFF" transform="translate(46,586)"/>
<path d="M0 0 C4.62 0 9.24 0 14 0 C14 4.62 14 9.24 14 14 C9.38 14 4.76 14 0 14 C0 9.38 0 4.76 0 0 Z " fill="#FFFFFF" transform="translate(16,586)"/>
<path d="M0 0 C4.62 0 9.24 0 14 0 C14 4.62 14 9.24 14 14 C9.38 14 4.76 14 0 14 C0 9.38 0 4.76 0 0 Z " fill="#FFFFFF" transform="translate(571,571)"/>
<path d="M0 0 C4.62 0 9.24 0 14 0 C14 4.62 14 9.24 14 14 C9.38 14 4.76 14 0 14 C0 9.38 0 4.76 0 0 Z " fill="#FFFFFF" transform="translate(541,571)"/>
<path d="M0 0 C4.62 0 9.24 0 14 0 C14 4.62 14 9.24 14 14 C9.38 14 4.76 14 0 14 C0 9.38 0 4.76 0 0 Z " fill="#FFFFFF" transform="translate(511,571)"/>
<path d="M0 0 C4.62 0 9.24 0 14 0 C14 4.62 14 9.24 14 14 C9.38 14 4.76 14 0 14 C0 9.38 0 4.76 0 0 Z " fill="#FFFFFF" transform="translate(481,571)"/>
<path d="M0 0 C4.62 0 9.24 0 14 0 C14 4.62 14 9.24 14 14 C9.38 14 4.76 14 0 14 C0 9.38 0 4.76 0 0 Z " fill="#FFFFFF" transform="translate(451,571)"/>
<path d="M0 0 C4.62 0 9.24 0 14 0 C14 4.62 14 9.24 14 14 C9.38 14 4.76 14 0 14 C0 9.38 0 4.76 0 0 Z " fill="#FFFFFF" transform="translate(421,571)"/>
<path d="M0 0 C4.62 0 9.24 0 14 0 C14 4.62 14 9.24 14 14 C9.38 14 4.76 14 0 14 C0 9.38 0 4.76 0 0 Z " fill="#FFFFFF" transform="translate(391,571)"/>
<path d="M0 0 C4.62 0 9.24 0 14 0 C14 4.62 14 9.24 14 14 C9.38 14 4.76 14 0 14 C0 9.38 0 4.76 0 0 Z " fill="#FFFFFF" transform="translate(211,571)"/>
<path d="M0 0 C4.62 0 9.24 0 14 0 C14 4.62 14 9.24 14 14 C9.38 14 4.76 14 0 14 C0 9.38 0 4.76 0 0 Z " fill="#FFFFFF" transform="translate(181,571)"/>
<path d="M0 0 C4.62 0 9.24 0 14 0 C14 4.62 14 9.24 14 14 C9.38 14 4.76 14 0 14 C0 9.38 0 4.76 0 0 Z " fill="#FFFFFF" transform="translate(151,571)"/>
<path d="M0 0 C4.62 0 9.24 0 14 0 C14 4.62 14 9.24 14 14 C9.38 14 4.76 14 0 14 C0 9.38 0 4.76 0 0 Z " fill="#FFFFFF" transform="translate(121,571)"/>
<path d="M0 0 C4.62 0 9.24 0 14 0 C14 4.62 14 9.24 14 14 C9.38 14 4.76 14 0 14 C0 9.38 0 4.76 0 0 Z " fill="#FFFFFF" transform="translate(91,571)"/>
<path d="M0 0 C4.62 0 9.24 0 14 0 C14 4.62 14 9.24 14 14 C9.38 14 4.76 14 0 14 C0 9.38 0 4.76 0 0 Z " fill="#FFFFFF" transform="translate(61,571)"/>
<path d="M0 0 C4.62 0 9.24 0 14 0 C14 4.62 14 9.24 14 14 C9.38 14 4.76 14 0 14 C0 9.38 0 4.76 0 0 Z " fill="#FFFFFF" transform="translate(31,571)"/>
<path d="M0 0 C4.62 0 9.24 0 14 0 C14 4.62 14 9.24 14 14 C9.38 14 4.76 14 0 14 C0 9.38 0 4.76 0 0 Z " fill="#FFFFFF" transform="translate(586,556)"/>
<path d="M0 0 C4.62 0 9.24 0 14 0 C14 4.62 14 9.24 14 14 C9.38 14 4.76 14 0 14 C0 9.38 0 4.76 0 0 Z " fill="#FFFFFF" transform="translate(556,556)"/>
<path d="M0 0 C4.62 0 9.24 0 14 0 C14 4.62 14 9.24 14 14 C9.38 14 4.76 14 0 14 C0 9.38 0 4.76 0 0 Z " fill="#FFFFFF" transform="translate(526,556)"/>
<path d="M0 0 C4.62 0 9.24 0 14 0 C14 4.62 14 9.24 14 14 C9.38 14 4.76 14 0 14 C0 9.38 0 4.76 0 0 Z " fill="#FFFFFF" transform="translate(496,556)"/>
<path d="M0 0 C4.62 0 9.24 0 14 0 C14 4.62 14 9.24 14 14 C9.38 14 4.76 14 0 14 C0 9.38 0 4.76 0 0 Z " fill="#FFFFFF" transform="translate(466,556)"/>
<path d="M0 0 C4.62 0 9.24 0 14 0 C14 4.62 14 9.24 14 14 C9.38 14 4.76 14 0 14 C0 9.38 0 4.76 0 0 Z " fill="#FFFFFF" transform="translate(436,556)"/>
<path d="M0 0 C4.62 0 9.24 0 14 0 C14 4.62 14 9.24 14 14 C9.38 14 4.76 14 0 14 C0 9.38 0 4.76 0 0 Z " fill="#FFFFFF" transform="translate(166,556)"/>
<path d="M0 0 C4.62 0 9.24 0 14 0 C14 4.62 14 9.24 14 14 C9.38 14 4.76 14 0 14 C0 9.38 0 4.76 0 0 Z " fill="#FFFFFF" transform="translate(136,556)"/>
<path d="M0 0 C4.62 0 9.24 0 14 0 C14 4.62 14 9.24 14 14 C9.38 14 4.76 14 0 14 C0 9.38 0 4.76 0 0 Z " fill="#FFFFFF" transform="translate(106,556)"/>
<path d="M0 0 C4.62 0 9.24 0 14 0 C14 4.62 14 9.24 14 14 C9.38 14 4.76 14 0 14 C0 9.38 0 4.76 0 0 Z " fill="#FFFFFF" transform="translate(76,556)"/>
<path d="M0 0 C4.62 0 9.24 0 14 0 C14 4.62 14 9.24 14 14 C9.38 14 4.76 14 0 14 C0 9.38 0 4.76 0 0 Z " fill="#FFFFFF" transform="translate(46,556)"/>
<path d="M0 0 C4.62 0 9.24 0 14 0 C14 4.62 14 9.24 14 14 C9.38 14 4.76 14 0 14 C0 9.38 0 4.76 0 0 Z " fill="#FFFFFF" transform="translate(16,556)"/>
<path d="M0 0 C4.62 0 9.24 0 14 0 C14 4.62 14 9.24 14 14 C9.38 14 4.76 14 0 14 C0 9.38 0 4.76 0 0 Z " fill="#FFFFFF" transform="translate(571,541)"/>
<path d="M0 0 C4.62 0 9.24 0 14 0 C14 4.62 14 9.24 14 14 C9.38 14 4.76 14 0 14 C0 9.38 0 4.76 0 0 Z " fill="#FFFFFF" transform="translate(541,541)"/>
<path d="M0 0 C4.62 0 9.24 0 14 0 C14 4.62 14 9.24 14 14 C9.38 14 4.76 14 0 14 C0 9.38 0 4.76 0 0 Z " fill="#FFFFFF" transform="translate(511,541)"/>
<path d="M0 0 C4.62 0 9.24 0 14 0 C14 4.62 14 9.24 14 14 C9.38 14 4.76 14 0 14 C0 9.38 0 4.76 0 0 Z " fill="#FFFFFF" transform="translate(481,541)"/>
<path d="M0 0 C4.62 0 9.24 0 14 0 C14 4.62 14 9.24 14 14 C9.38 14 4.76 14 0 14 C0 9.38 0 4.76 0 0 Z " fill="#FEFEFE" transform="translate(151,541)"/>
<path d="M0 0 C4.62 0 9.24 0 14 0 C14 4.62 14 9.24 14 14 C9.38 14 4.76 14 0 14 C0 9.38 0 4.76 0 0 Z " fill="#FFFFFF" transform="translate(121,541)"/>
<path d="M0 0 C4.62 0 9.24 0 14 0 C14 4.62 14 9.24 14 14 C9.38 14 4.76 14 0 14 C0 9.38 0 4.76 0 0 Z " fill="#FFFFFF" transform="translate(91,541)"/>
<path d="M0 0 C4.62 0 9.24 0 14 0 C14 4.62 14 9.24 14 14 C9.38 14 4.76 14 0 14 C0 9.38 0 4.76 0 0 Z " fill="#FFFFFF" transform="translate(61,541)"/>
<path d="M0 0 C4.62 0 9.24 0 14 0 C14 4.62 14 9.24 14 14 C9.38 14 4.76 14 0 14 C0 9.38 0 4.76 0 0 Z " fill="#FFFFFF" transform="translate(31,541)"/>
<path d="M0 0 C4.62 0 9.24 0 14 0 C14 4.62 14 9.24 14 14 C9.38 14 4.76 14 0 14 C0 9.38 0 4.76 0 0 Z " fill="#FFFFFF" transform="translate(586,526)"/>
<path d="M0 0 C4.62 0 9.24 0 14 0 C14 4.62 14 9.24 14 14 C9.38 14 4.76 14 0 14 C0 9.38 0 4.76 0 0 Z " fill="#FFFFFF" transform="translate(556,526)"/>
<path d="M0 0 C4.62 0 9.24 0 14 0 C14 4.62 14 9.24 14 14 C9.38 14 4.76 14 0 14 C0 9.38 0 4.76 0 0 Z " fill="#FFFFFF" transform="translate(526,526)"/>
<path d="M0 0 C4.62 0 9.24 0 14 0 C14 4.62 14 9.24 14 14 C9.38 14 4.76 14 0 14 C0 9.38 0 4.76 0 0 Z " fill="#FFFFFF" transform="translate(496,526)"/>
<path d="M0 0 C4.62 0 9.24 0 14 0 C14 4.62 14 9.24 14 14 C9.38 14 4.76 14 0 14 C0 9.38 0 4.76 0 0 Z " fill="#FFFFFF" transform="translate(106,526)"/>
<path d="M0 0 C4.62 0 9.24 0 14 0 C14 4.62 14 9.24 14 14 C9.38 14 4.76 14 0 14 C0 9.38 0 4.76 0 0 Z " fill="#FFFFFF" transform="translate(76,526)"/>
<path d="M0 0 C4.62 0 9.24 0 14 0 C14 4.62 14 9.24 14 14 C9.38 14 4.76 14 0 14 C0 9.38 0 4.76 0 0 Z " fill="#FFFFFF" transform="translate(46,526)"/>
<path d="M0 0 C4.62 0 9.24 0 14 0 C14 4.62 14 9.24 14 14 C9.38 14 4.76 14 0 14 C0 9.38 0 4.76 0 0 Z " fill="#FFFFFF" transform="translate(16,526)"/>
<path d="M0 0 C4.62 0 9.24 0 14 0 C14 4.62 14 9.24 14 14 C9.38 14 4.76 14 0 14 C0 9.38 0 4.76 0 0 Z " fill="#FFFFFF" transform="translate(571,511)"/>
<path d="M0 0 C4.62 0 9.24 0 14 0 C14 4.62 14 9.24 14 14 C9.38 14 4.76 14 0 14 C0 9.38 0 4.76 0 0 Z " fill="#FFFFFF" transform="translate(541,511)"/>
<path d="M0 0 C4.62 0 9.24 0 14 0 C14 4.62 14 9.24 14 14 C9.38 14 4.76 14 0 14 C0 9.38 0 4.76 0 0 Z " fill="#FFFFFF" transform="translate(511,511)"/>
<path d="M0 0 C4.62 0 9.24 0 14 0 C14 4.62 14 9.24 14 14 C9.38 14 4.76 14 0 14 C0 9.38 0 4.76 0 0 Z " fill="#FFFFFF" transform="translate(91,511)"/>
<path d="M0 0 C4.62 0 9.24 0 14 0 C14 4.62 14 9.24 14 14 C9.38 14 4.76 14 0 14 C0 9.38 0 4.76 0 0 Z " fill="#FFFFFF" transform="translate(61,511)"/>
<path d="M0 0 C4.62 0 9.24 0 14 0 C14 4.62 14 9.24 14 14 C9.38 14 4.76 14 0 14 C0 9.38 0 4.76 0 0 Z " fill="#FFFFFF" transform="translate(31,511)"/>
<path d="M0 0 C4.62 0 9.24 0 14 0 C14 4.62 14 9.24 14 14 C9.38 14 4.76 14 0 14 C0 9.38 0 4.76 0 0 Z " fill="#FFFFFF" transform="translate(586,496)"/>
<path d="M0 0 C4.62 0 9.24 0 14 0 C14 4.62 14 9.24 14 14 C9.38 14 4.76 14 0 14 C0 9.38 0 4.76 0 0 Z " fill="#FFFFFF" transform="translate(556,496)"/>
<path d="M0 0 C4.62 0 9.24 0 14 0 C14 4.62 14 9.24 14 14 C9.38 14 4.76 14 0 14 C0 9.38 0 4.76 0 0 Z " fill="#FFFFFF" transform="translate(526,496)"/>
<path d="M0 0 C4.62 0 9.24 0 14 0 C14 4.62 14 9.24 14 14 C9.38 14 4.76 14 0 14 C0 9.38 0 4.76 0 0 Z " fill="#FFFFFF" transform="translate(76,496)"/>
<path d="M0 0 C4.62 0 9.24 0 14 0 C14 4.62 14 9.24 14 14 C9.38 14 4.76 14 0 14 C0 9.38 0 4.76 0 0 Z " fill="#FFFFFF" transform="translate(46,496)"/>
<path d="M0 0 C4.62 0 9.24 0 14 0 C14 4.62 14 9.24 14 14 C9.38 14 4.76 14 0 14 C0 9.38 0 4.76 0 0 Z " fill="#FFFFFF" transform="translate(16,496)"/>
<path d="M0 0 C4.62 0 9.24 0 14 0 C14 4.62 14 9.24 14 14 C9.38 14 4.76 14 0 14 C0 9.38 0 4.76 0 0 Z " fill="#FFFFFF" transform="translate(571,481)"/>
<path d="M0 0 C4.62 0 9.24 0 14 0 C14 4.62 14 9.24 14 14 C9.38 14 4.76 14 0 14 C0 9.38 0 4.76 0 0 Z " fill="#FFFFFF" transform="translate(541,481)"/>
<path d="M0 0 C4.62 0 9.24 0 14 0 C14 4.62 14 9.24 14 14 C9.38 14 4.76 14 0 14 C0 9.38 0 4.76 0 0 Z " fill="#FFFFFF" transform="translate(61,481)"/>
<path d="M0 0 C4.62 0 9.24 0 14 0 C14 4.62 14 9.24 14 14 C9.38 14 4.76 14 0 14 C0 9.38 0 4.76 0 0 Z " fill="#FFFFFF" transform="translate(31,481)"/>
<path d="M0 0 C4.62 0 9.24 0 14 0 C14 4.62 14 9.24 14 14 C9.38 14 4.76 14 0 14 C0 9.38 0 4.76 0 0 Z " fill="#FFFFFF" transform="translate(586,466)"/>
<path d="M0 0 C4.62 0 9.24 0 14 0 C14 4.62 14 9.24 14 14 C9.38 14 4.76 14 0 14 C0 9.38 0 4.76 0 0 Z " fill="#FFFFFF" transform="translate(556,466)"/>
<path d="M0 0 C4.62 0 9.24 0 14 0 C14 4.62 14 9.24 14 14 C9.38 14 4.76 14 0 14 C0 9.38 0 4.76 0 0 Z " fill="#FFFFFF" transform="translate(46,466)"/>
<path d="M0 0 C4.62 0 9.24 0 14 0 C14 4.62 14 9.24 14 14 C9.38 14 4.76 14 0 14 C0 9.38 0 4.76 0 0 Z " fill="#FFFFFF" transform="translate(16,466)"/>
<path d="M0 0 C4.62 0 9.24 0 14 0 C14 4.62 14 9.24 14 14 C9.38 14 4.76 14 0 14 C0 9.38 0 4.76 0 0 Z " fill="#FFFFFF" transform="translate(571,451)"/>
<path d="M0 0 C4.62 0 9.24 0 14 0 C14 4.62 14 9.24 14 14 C9.38 14 4.76 14 0 14 C0 9.38 0 4.76 0 0 Z " fill="#FFFFFF" transform="translate(541,451)"/>
<path d="M0 0 C4.62 0 9.24 0 14 0 C14 4.62 14 9.24 14 14 C9.38 14 4.76 14 0 14 C0 9.38 0 4.76 0 0 Z " fill="#FFFFFF" transform="translate(331,451)"/>
<path d="M0 0 C4.62 0 9.24 0 14 0 C14 4.62 14 9.24 14 14 C9.38 14 4.76 14 0 14 C0 9.38 0 4.76 0 0 Z " fill="#FFFFFF" transform="translate(301,451)"/>
<path d="M0 0 C4.62 0 9.24 0 14 0 C14 4.62 14 9.24 14 14 C9.38 14 4.76 14 0 14 C0 9.38 0 4.76 0 0 Z " fill="#FFFFFF" transform="translate(271,451)"/>
<path d="M0 0 C4.62 0 9.24 0 14 0 C14 4.62 14 9.24 14 14 C9.38 14 4.76 14 0 14 C0 9.38 0 4.76 0 0 Z " fill="#FFFFFF" transform="translate(31,451)"/>
<path d="M0 0 C4.62 0 9.24 0 14 0 C14 4.62 14 9.24 14 14 C9.38 14 4.76 14 0 14 C0 9.38 0 4.76 0 0 Z " fill="#FFFFFF" transform="translate(586,436)"/>
<path d="M0 0 C4.62 0 9.24 0 14 0 C14 4.62 14 9.24 14 14 C9.38 14 4.76 14 0 14 C0 9.38 0 4.76 0 0 Z " fill="#FFFFFF" transform="translate(556,436)"/>
<path d="M0 0 C4.62 0 9.24 0 14 0 C14 4.62 14 9.24 14 14 C9.38 14 4.76 14 0 14 C0 9.38 0 4.76 0 0 Z " fill="#FFFFFF" transform="translate(346,436)"/>
<path d="M0 0 C4.62 0 9.24 0 14 0 C14 4.62 14 9.24 14 14 C9.38 14 4.76 14 0 14 C0 9.38 0 4.76 0 0 Z " fill="#FFFFFF" transform="translate(316,436)"/>
<path d="M0 0 C4.62 0 9.24 0 14 0 C14 4.62 14 9.24 14 14 C9.38 14 4.76 14 0 14 C0 9.38 0 4.76 0 0 Z " fill="#FFFFFF" transform="translate(286,436)"/>
<path d="M0 0 C4.62 0 9.24 0 14 0 C14 4.62 14 9.24 14 14 C9.38 14 4.76 14 0 14 C0 9.38 0 4.76 0 0 Z " fill="#FFFFFF" transform="translate(256,436)"/>
<path d="M0 0 C4.62 0 9.24 0 14 0 C14 4.62 14 9.24 14 14 C9.38 14 4.76 14 0 14 C0 9.38 0 4.76 0 0 Z " fill="#FFFFFF" transform="translate(46,436)"/>
<path d="M0 0 C4.62 0 9.24 0 14 0 C14 4.62 14 9.24 14 14 C9.38 14 4.76 14 0 14 C0 9.38 0 4.76 0 0 Z " fill="#FFFFFF" transform="translate(16,436)"/>
<path d="M0 0 C4.62 0 9.24 0 14 0 C14 4.62 14 9.24 14 14 C9.38 14 4.76 14 0 14 C0 9.38 0 4.76 0 0 Z " fill="#FFFFFF" transform="translate(571,421)"/>
<path d="M0 0 C4.62 0 9.24 0 14 0 C14 4.62 14 9.24 14 14 C9.38 14 4.76 14 0 14 C0 9.38 0 4.76 0 0 Z " fill="#FFFFFF" transform="translate(391,421)"/>
<path d="M0 0 C4.62 0 9.24 0 14 0 C14 4.62 14 9.24 14 14 C9.38 14 4.76 14 0 14 C0 9.38 0 4.76 0 0 Z " fill="#FFFFFF" transform="translate(361,421)"/>
<path d="M0 0 C4.62 0 9.24 0 14 0 C14 4.62 14 9.24 14 14 C9.38 14 4.76 14 0 14 C0 9.38 0 4.76 0 0 Z " fill="#FFFFFF" transform="translate(331,421)"/>
<path d="M0 0 C4.62 0 9.24 0 14 0 C14 4.62 14 9.24 14 14 C9.38 14 4.76 14 0 14 C0 9.38 0 4.76 0 0 Z " fill="#FFFFFF" transform="translate(301,421)"/>
<path d="M0 0 C4.62 0 9.24 0 14 0 C14 4.62 14 9.24 14 14 C9.38 14 4.76 14 0 14 C0 9.38 0 4.76 0 0 Z " fill="#FFFFFF" transform="translate(271,421)"/>
<path d="M0 0 C4.62 0 9.24 0 14 0 C14 4.62 14 9.24 14 14 C9.38 14 4.76 14 0 14 C0 9.38 0 4.76 0 0 Z " fill="#FFFFFF" transform="translate(241,421)"/>
<path d="M0 0 C4.62 0 9.24 0 14 0 C14 4.62 14 9.24 14 14 C9.38 14 4.76 14 0 14 C0 9.38 0 4.76 0 0 Z " fill="#FFFFFF" transform="translate(211,421)"/>
<path d="M0 0 C4.62 0 9.24 0 14 0 C14 4.62 14 9.24 14 14 C9.38 14 4.76 14 0 14 C0 9.38 0 4.76 0 0 Z " fill="#FFFFFF" transform="translate(31,421)"/>
<path d="M0 0 C4.62 0 9.24 0 14 0 C14 4.62 14 9.24 14 14 C9.38 14 4.76 14 0 14 C0 9.38 0 4.76 0 0 Z " fill="#FFFFFF" transform="translate(586,406)"/>
<path d="M0 0 C4.62 0 9.24 0 14 0 C14 4.62 14 9.24 14 14 C9.38 14 4.76 14 0 14 C0 9.38 0 4.76 0 0 Z " fill="#FFFFFF" transform="translate(406,406)"/>
<path d="M0 0 C4.62 0 9.24 0 14 0 C14 4.62 14 9.24 14 14 C9.38 14 4.76 14 0 14 C0 9.38 0 4.76 0 0 Z " fill="#FFFFFF" transform="translate(376,406)"/>
<path d="M0 0 C4.62 0 9.24 0 14 0 C14 4.62 14 9.24 14 14 C9.38 14 4.76 14 0 14 C0 9.38 0 4.76 0 0 Z " fill="#FFFFFF" transform="translate(346,406)"/>
<path d="M0 0 C4.62 0 9.24 0 14 0 C14 4.62 14 9.24 14 14 C9.38 14 4.76 14 0 14 C0 9.38 0 4.76 0 0 Z " fill="#FFFFFF" transform="translate(316,406)"/>
<path d="M0 0 C4.62 0 9.24 0 14 0 C14 4.62 14 9.24 14 14 C9.38 14 4.76 14 0 14 C0 9.38 0 4.76 0 0 Z " fill="#FFFFFF" transform="translate(286,406)"/>
<path d="M0 0 C4.62 0 9.24 0 14 0 C14 4.62 14 9.24 14 14 C9.38 14 4.76 14 0 14 C0 9.38 0 4.76 0 0 Z " fill="#FFFFFF" transform="translate(256,406)"/>
<path d="M0 0 C4.62 0 9.24 0 14 0 C14 4.62 14 9.24 14 14 C9.38 14 4.76 14 0 14 C0 9.38 0 4.76 0 0 Z " fill="#FFFFFF" transform="translate(226,406)"/>
<path d="M0 0 C4.62 0 9.24 0 14 0 C14 4.62 14 9.24 14 14 C9.38 14 4.76 14 0 14 C0 9.38 0 4.76 0 0 Z " fill="#FFFFFF" transform="translate(196,406)"/>
<path d="M0 0 C4.62 0 9.24 0 14 0 C14 4.62 14 9.24 14 14 C9.38 14 4.76 14 0 14 C0 9.38 0 4.76 0 0 Z " fill="#FFFFFF" transform="translate(16,406)"/>
<path d="M0 0 C4.62 0 9.24 0 14 0 C14 4.62 14 9.24 14 14 C9.38 14 4.76 14 0 14 C0 9.38 0 4.76 0 0 Z " fill="#FFFFFF" transform="translate(571,391)"/>
<path d="M0 0 C4.62 0 9.24 0 14 0 C14 4.62 14 9.24 14 14 C9.38 14 4.76 14 0 14 C0 9.38 0 4.76 0 0 Z " fill="#FFFFFF" transform="translate(421,391)"/>
<path d="M0 0 C4.62 0 9.24 0 14 0 C14 4.62 14 9.24 14 14 C9.38 14 4.76 14 0 14 C0 9.38 0 4.76 0 0 Z " fill="#FFFFFF" transform="translate(391,391)"/>
<path d="M0 0 C4.62 0 9.24 0 14 0 C14 4.62 14 9.24 14 14 C9.38 14 4.76 14 0 14 C0 9.38 0 4.76 0 0 Z " fill="#FFFFFF" transform="translate(361,391)"/>
<path d="M0 0 C4.62 0 9.24 0 14 0 C14 4.62 14 9.24 14 14 C9.38 14 4.76 14 0 14 C0 9.38 0 4.76 0 0 Z " fill="#FFFFFF" transform="translate(331,391)"/>
<path d="M0 0 C4.62 0 9.24 0 14 0 C14 4.62 14 9.24 14 14 C9.38 14 4.76 14 0 14 C0 9.38 0 4.76 0 0 Z " fill="#FFFFFF" transform="translate(301,391)"/>
<path d="M0 0 C4.62 0 9.24 0 14 0 C14 4.62 14 9.24 14 14 C9.38 14 4.76 14 0 14 C0 9.38 0 4.76 0 0 Z " fill="#FFFFFF" transform="translate(271,391)"/>
<path d="M0 0 C4.62 0 9.24 0 14 0 C14 4.62 14 9.24 14 14 C9.38 14 4.76 14 0 14 C0 9.38 0 4.76 0 0 Z " fill="#FFFFFF" transform="translate(241,391)"/>
<path d="M0 0 C4.62 0 9.24 0 14 0 C14 4.62 14 9.24 14 14 C9.38 14 4.76 14 0 14 C0 9.38 0 4.76 0 0 Z " fill="#FFFFFF" transform="translate(211,391)"/>
<path d="M0 0 C4.62 0 9.24 0 14 0 C14 4.62 14 9.24 14 14 C9.38 14 4.76 14 0 14 C0 9.38 0 4.76 0 0 Z " fill="#FFFFFF" transform="translate(181,391)"/>
<path d="M0 0 C4.62 0 9.24 0 14 0 C14 4.62 14 9.24 14 14 C9.38 14 4.76 14 0 14 C0 9.38 0 4.76 0 0 Z " fill="#FFFFFF" transform="translate(586,376)"/>
<path d="M0 0 C4.62 0 9.24 0 14 0 C14 4.62 14 9.24 14 14 C9.38 14 4.76 14 0 14 C0 9.38 0 4.76 0 0 Z " fill="#FFFFFF" transform="translate(406,376)"/>
<path d="M0 0 C4.62 0 9.24 0 14 0 C14 4.62 14 9.24 14 14 C9.38 14 4.76 14 0 14 C0 9.38 0 4.76 0 0 Z " fill="#FFFFFF" transform="translate(376,376)"/>
<path d="M0 0 C4.62 0 9.24 0 14 0 C14 4.62 14 9.24 14 14 C9.38 14 4.76 14 0 14 C0 9.38 0 4.76 0 0 Z " fill="#FFFFFF" transform="translate(346,376)"/>
<path d="M0 0 C4.62 0 9.24 0 14 0 C14 4.62 14 9.24 14 14 C9.38 14 4.76 14 0 14 C0 9.38 0 4.76 0 0 Z " fill="#FFFFFF" transform="translate(316,376)"/>
<path d="M0 0 C4.62 0 9.24 0 14 0 C14 4.62 14 9.24 14 14 C9.38 14 4.76 14 0 14 C0 9.38 0 4.76 0 0 Z " fill="#FFFFFF" transform="translate(286,376)"/>
<path d="M0 0 C4.62 0 9.24 0 14 0 C14 4.62 14 9.24 14 14 C9.38 14 4.76 14 0 14 C0 9.38 0 4.76 0 0 Z " fill="#FFFFFF" transform="translate(256,376)"/>
<path d="M0 0 C4.62 0 9.24 0 14 0 C14 4.62 14 9.24 14 14 C9.38 14 4.76 14 0 14 C0 9.38 0 4.76 0 0 Z " fill="#FFFFFF" transform="translate(226,376)"/>
<path d="M0 0 C4.62 0 9.24 0 14 0 C14 4.62 14 9.24 14 14 C9.38 14 4.76 14 0 14 C0 9.38 0 4.76 0 0 Z " fill="#FFFFFF" transform="translate(196,376)"/>
<path d="M0 0 C4.62 0 9.24 0 14 0 C14 4.62 14 9.24 14 14 C9.38 14 4.76 14 0 14 C0 9.38 0 4.76 0 0 Z " fill="#FEFEFE" transform="translate(166,376)"/>
<path d="M0 0 C4.62 0 9.24 0 14 0 C14 4.62 14 9.24 14 14 C9.38 14 4.76 14 0 14 C0 9.38 0 4.76 0 0 Z " fill="#FFFFFF" transform="translate(16,376)"/>
<path d="M0 0 C4.62 0 9.24 0 14 0 C14 4.62 14 9.24 14 14 C9.38 14 4.76 14 0 14 C0 9.38 0 4.76 0 0 Z " fill="#FFFFFF" transform="translate(571,361)"/>
<path d="M0 0 C4.62 0 9.24 0 14 0 C14 4.62 14 9.24 14 14 C9.38 14 4.76 14 0 14 C0 9.38 0 4.76 0 0 Z " fill="#FFFFFF" transform="translate(421,361)"/>
<path d="M0 0 C4.62 0 9.24 0 14 0 C14 4.62 14 9.24 14 14 C9.38 14 4.76 14 0 14 C0 9.38 0 4.76 0 0 Z " fill="#FFFFFF" transform="translate(391,361)"/>
<path d="M0 0 C4.62 0 9.24 0 14 0 C14 4.62 14 9.24 14 14 C9.38 14 4.76 14 0 14 C0 9.38 0 4.76 0 0 Z " fill="#FFFFFF" transform="translate(361,361)"/>
<path d="M0 0 C4.62 0 9.24 0 14 0 C14 4.62 14 9.24 14 14 C9.38 14 4.76 14 0 14 C0 9.38 0 4.76 0 0 Z " fill="#FFFFFF" transform="translate(331,361)"/>
<path d="M0 0 C4.62 0 9.24 0 14 0 C14 4.62 14 9.24 14 14 C9.38 14 4.76 14 0 14 C0 9.38 0 4.76 0 0 Z " fill="#FFFFFF" transform="translate(301,361)"/>
<path d="M0 0 C4.62 0 9.24 0 14 0 C14 4.62 14 9.24 14 14 C9.38 14 4.76 14 0 14 C0 9.38 0 4.76 0 0 Z " fill="#FFFFFF" transform="translate(271,361)"/>
<path d="M0 0 C4.62 0 9.24 0 14 0 C14 4.62 14 9.24 14 14 C9.38 14 4.76 14 0 14 C0 9.38 0 4.76 0 0 Z " fill="#FFFFFF" transform="translate(241,361)"/>
<path d="M0 0 C4.62 0 9.24 0 14 0 C14 4.62 14 9.24 14 14 C9.38 14 4.76 14 0 14 C0 9.38 0 4.76 0 0 Z " fill="#FFFFFF" transform="translate(211,361)"/>
<path d="M0 0 C4.62 0 9.24 0 14 0 C14 4.62 14 9.24 14 14 C9.38 14 4.76 14 0 14 C0 9.38 0 4.76 0 0 Z " fill="#FFFFFF" transform="translate(181,361)"/>
<path d="M0 0 C4.62 0 9.24 0 14 0 C14 4.62 14 9.24 14 14 C9.38 14 4.76 14 0 14 C0 9.38 0 4.76 0 0 Z " fill="#FFFFFF" transform="translate(586,346)"/>
<path d="M0 0 C4.62 0 9.24 0 14 0 C14 4.62 14 9.24 14 14 C9.38 14 4.76 14 0 14 C0 9.38 0 4.76 0 0 Z " fill="#FFFFFF" transform="translate(286,346)"/>
<path d="M0 0 C4.62 0 9.24 0 14 0 C14 4.62 14 9.24 14 14 C9.38 14 4.76 14 0 14 C0 9.38 0 4.76 0 0 Z " fill="#FFFFFF" transform="translate(256,346)"/>
<path d="M0 0 C4.62 0 9.24 0 14 0 C14 4.62 14 9.24 14 14 C9.38 14 4.76 14 0 14 C0 9.38 0 4.76 0 0 Z " fill="#FFFFFF" transform="translate(226,346)"/>
<path d="M0 0 C4.62 0 9.24 0 14 0 C14 4.62 14 9.24 14 14 C9.38 14 4.76 14 0 14 C0 9.38 0 4.76 0 0 Z " fill="#FFFFFF" transform="translate(196,346)"/>
<path d="M0 0 C4.62 0 9.24 0 14 0 C14 4.62 14 9.24 14 14 C9.38 14 4.76 14 0 14 C0 9.38 0 4.76 0 0 Z " fill="#FFFFFF" transform="translate(166,346)"/>
<path d="M0 0 C4.62 0 9.24 0 14 0 C14 4.62 14 9.24 14 14 C9.38 14 4.76 14 0 14 C0 9.38 0 4.76 0 0 Z " fill="#FFFFFF" transform="translate(16,346)"/>
<path d="M0 0 C4.62 0 9.24 0 14 0 C14 4.62 14 9.24 14 14 C9.38 14 4.76 14 0 14 C0 9.38 0 4.76 0 0 Z " fill="#FFFFFF" transform="translate(271,331)"/>
<path d="M0 0 C4.62 0 9.24 0 14 0 C14 4.62 14 9.24 14 14 C9.38 14 4.76 14 0 14 C0 9.38 0 4.76 0 0 Z " fill="#FFFFFF" transform="translate(241,331)"/>
<path d="M0 0 C4.62 0 9.24 0 14 0 C14 4.62 14 9.24 14 14 C9.38 14 4.76 14 0 14 C0 9.38 0 4.76 0 0 Z " fill="#FFFFFF" transform="translate(211,331)"/>
<path d="M0 0 C4.62 0 9.24 0 14 0 C14 4.62 14 9.24 14 14 C9.38 14 4.76 14 0 14 C0 9.38 0 4.76 0 0 Z " fill="#FFFFFF" transform="translate(181,331)"/>
<path d="M0 0 C4.62 0 9.24 0 14 0 C14 4.62 14 9.24 14 14 C9.38 14 4.76 14 0 14 C0 9.38 0 4.76 0 0 Z " fill="#FFFFFF" transform="translate(151,331)"/>
<path d="M0 0 C4.62 0 9.24 0 14 0 C14 4.62 14 9.24 14 14 C9.38 14 4.76 14 0 14 C0 9.38 0 4.76 0 0 Z " fill="#FFFFFF" transform="translate(586,316)"/>
<path d="M0 0 C4.62 0 9.24 0 14 0 C14 4.62 14 9.24 14 14 C9.38 14 4.76 14 0 14 C0 9.38 0 4.76 0 0 Z " fill="#FFFFFF" transform="translate(286,316)"/>
<path d="M0 0 C4.62 0 9.24 0 14 0 C14 4.62 14 9.24 14 14 C9.38 14 4.76 14 0 14 C0 9.38 0 4.76 0 0 Z " fill="#FFFFFF" transform="translate(256,316)"/>
<path d="M0 0 C4.62 0 9.24 0 14 0 C14 4.62 14 9.24 14 14 C9.38 14 4.76 14 0 14 C0 9.38 0 4.76 0 0 Z " fill="#FFFFFF" transform="translate(226,316)"/>
<path d="M0 0 C4.62 0 9.24 0 14 0 C14 4.62 14 9.24 14 14 C9.38 14 4.76 14 0 14 C0 9.38 0 4.76 0 0 Z " fill="#FFFFFF" transform="translate(196,316)"/>
<path d="M0 0 C4.62 0 9.24 0 14 0 C14 4.62 14 9.24 14 14 C9.38 14 4.76 14 0 14 C0 9.38 0 4.76 0 0 Z " fill="#FFFFFF" transform="translate(166,316)"/>
<path d="M0 0 C4.62 0 9.24 0 14 0 C14 4.62 14 9.24 14 14 C9.38 14 4.76 14 0 14 C0 9.38 0 4.76 0 0 Z " fill="#FFFFFF" transform="translate(271,301)"/>
<path d="M0 0 C4.62 0 9.24 0 14 0 C14 4.62 14 9.24 14 14 C9.38 14 4.76 14 0 14 C0 9.38 0 4.76 0 0 Z " fill="#FFFFFF" transform="translate(241,301)"/>
<path d="M0 0 C4.62 0 9.24 0 14 0 C14 4.62 14 9.24 14 14 C9.38 14 4.76 14 0 14 C0 9.38 0 4.76 0 0 Z " fill="#FFFFFF" transform="translate(211,301)"/>
<path d="M0 0 C4.62 0 9.24 0 14 0 C14 4.62 14 9.24 14 14 C9.38 14 4.76 14 0 14 C0 9.38 0 4.76 0 0 Z " fill="#FFFFFF" transform="translate(181,301)"/>
<path d="M0 0 C4.62 0 9.24 0 14 0 C14 4.62 14 9.24 14 14 C9.38 14 4.76 14 0 14 C0 9.38 0 4.76 0 0 Z " fill="#FFFFFF" transform="translate(151,301)"/>
<path d="M0 0 C4.62 0 9.24 0 14 0 C14 4.62 14 9.24 14 14 C9.38 14 4.76 14 0 14 C0 9.38 0 4.76 0 0 Z " fill="#FFFFFF" transform="translate(586,286)"/>
<path d="M0 0 C4.62 0 9.24 0 14 0 C14 4.62 14 9.24 14 14 C9.38 14 4.76 14 0 14 C0 9.38 0 4.76 0 0 Z " fill="#FFFFFF" transform="translate(286,286)"/>
<path d="M0 0 C4.62 0 9.24 0 14 0 C14 4.62 14 9.24 14 14 C9.38 14 4.76 14 0 14 C0 9.38 0 4.76 0 0 Z " fill="#FFFFFF" transform="translate(256,286)"/>
<path d="M0 0 C4.62 0 9.24 0 14 0 C14 4.62 14 9.24 14 14 C9.38 14 4.76 14 0 14 C0 9.38 0 4.76 0 0 Z " fill="#FFFFFF" transform="translate(226,286)"/>
<path d="M0 0 C4.62 0 9.24 0 14 0 C14 4.62 14 9.24 14 14 C9.38 14 4.76 14 0 14 C0 9.38 0 4.76 0 0 Z " fill="#FFFFFF" transform="translate(196,286)"/>
<path d="M0 0 C4.62 0 9.24 0 14 0 C14 4.62 14 9.24 14 14 C9.38 14 4.76 14 0 14 C0 9.38 0 4.76 0 0 Z " fill="#FFFFFF" transform="translate(166,286)"/>
<path d="M0 0 C4.62 0 9.24 0 14 0 C14 4.62 14 9.24 14 14 C9.38 14 4.76 14 0 14 C0 9.38 0 4.76 0 0 Z " fill="#FFFFFF" transform="translate(271,271)"/>
<path d="M0 0 C4.62 0 9.24 0 14 0 C14 4.62 14 9.24 14 14 C9.38 14 4.76 14 0 14 C0 9.38 0 4.76 0 0 Z " fill="#FFFFFF" transform="translate(241,271)"/>
<path d="M0 0 C4.62 0 9.24 0 14 0 C14 4.62 14 9.24 14 14 C9.38 14 4.76 14 0 14 C0 9.38 0 4.76 0 0 Z " fill="#FFFFFF" transform="translate(211,271)"/>
<path d="M0 0 C4.62 0 9.24 0 14 0 C14 4.62 14 9.24 14 14 C9.38 14 4.76 14 0 14 C0 9.38 0 4.76 0 0 Z " fill="#FFFFFF" transform="translate(181,271)"/>
<path d="M0 0 C4.62 0 9.24 0 14 0 C14 4.62 14 9.24 14 14 C9.38 14 4.76 14 0 14 C0 9.38 0 4.76 0 0 Z " fill="#FFFFFF" transform="translate(151,271)"/>
<path d="M0 0 C4.62 0 9.24 0 14 0 C14 4.62 14 9.24 14 14 C9.38 14 4.76 14 0 14 C0 9.38 0 4.76 0 0 Z " fill="#FFFFFF" transform="translate(586,256)"/>
<path d="M0 0 C4.62 0 9.24 0 14 0 C14 4.62 14 9.24 14 14 C9.38 14 4.76 14 0 14 C0 9.38 0 4.76 0 0 Z " fill="#FFFFFF" transform="translate(286,256)"/>
<path d="M0 0 C4.62 0 9.24 0 14 0 C14 4.62 14 9.24 14 14 C9.38 14 4.76 14 0 14 C0 9.38 0 4.76 0 0 Z " fill="#FFFFFF" transform="translate(256,256)"/>
<path d="M0 0 C4.62 0 9.24 0 14 0 C14 4.62 14 9.24 14 14 C9.38 14 4.76 14 0 14 C0 9.38 0 4.76 0 0 Z " fill="#FFFFFF" transform="translate(226,256)"/>
<path d="M0 0 C4.62 0 9.24 0 14 0 C14 4.62 14 9.24 14 14 C9.38 14 4.76 14 0 14 C0 9.38 0 4.76 0 0 Z " fill="#FFFFFF" transform="translate(196,256)"/>
<path d="M0 0 C4.62 0 9.24 0 14 0 C14 4.62 14 9.24 14 14 C9.38 14 4.76 14 0 14 C0 9.38 0 4.76 0 0 Z " fill="#FFFFFF" transform="translate(166,256)"/>
<path d="M0 0 C4.62 0 9.24 0 14 0 C14 4.62 14 9.24 14 14 C9.38 14 4.76 14 0 14 C0 9.38 0 4.76 0 0 Z " fill="#FFFFFF" transform="translate(571,241)"/>
<path d="M0 0 C4.62 0 9.24 0 14 0 C14 4.62 14 9.24 14 14 C9.38 14 4.76 14 0 14 C0 9.38 0 4.76 0 0 Z " fill="#FFFFFF" transform="translate(271,241)"/>
<path d="M0 0 C4.62 0 9.24 0 14 0 C14 4.62 14 9.24 14 14 C9.38 14 4.76 14 0 14 C0 9.38 0 4.76 0 0 Z " fill="#FFFFFF" transform="translate(241,241)"/>
<path d="M0 0 C4.62 0 9.24 0 14 0 C14 4.62 14 9.24 14 14 C9.38 14 4.76 14 0 14 C0 9.38 0 4.76 0 0 Z " fill="#FFFFFF" transform="translate(211,241)"/>
<path d="M0 0 C4.62 0 9.24 0 14 0 C14 4.62 14 9.24 14 14 C9.38 14 4.76 14 0 14 C0 9.38 0 4.76 0 0 Z " fill="#FFFFFF" transform="translate(181,241)"/>
<path d="M0 0 C4.62 0 9.24 0 14 0 C14 4.62 14 9.24 14 14 C9.38 14 4.76 14 0 14 C0 9.38 0 4.76 0 0 Z " fill="#FEFEFE" transform="translate(151,241)"/>
<path d="M0 0 C4.62 0 9.24 0 14 0 C14 4.62 14 9.24 14 14 C9.38 14 4.76 14 0 14 C0 9.38 0 4.76 0 0 Z " fill="#FFFFFF" transform="translate(586,226)"/>
<path d="M0 0 C4.62 0 9.24 0 14 0 C14 4.62 14 9.24 14 14 C9.38 14 4.76 14 0 14 C0 9.38 0 4.76 0 0 Z " fill="#FFFFFF" transform="translate(556,226)"/>
<path d="M0 0 C4.62 0 9.24 0 14 0 C14 4.62 14 9.24 14 14 C9.38 14 4.76 14 0 14 C0 9.38 0 4.76 0 0 Z " fill="#FFFFFF" transform="translate(526,226)"/>
<path d="M0 0 C4.62 0 9.24 0 14 0 C14 4.62 14 9.24 14 14 C9.38 14 4.76 14 0 14 C0 9.38 0 4.76 0 0 Z " fill="#FFFFFF" transform="translate(496,226)"/>
<path d="M0 0 C4.62 0 9.24 0 14 0 C14 4.62 14 9.24 14 14 C9.38 14 4.76 14 0 14 C0 9.38 0 4.76 0 0 Z " fill="#FFFFFF" transform="translate(466,226)"/>
<path d="M0 0 C4.62 0 9.24 0 14 0 C14 4.62 14 9.24 14 14 C9.38 14 4.76 14 0 14 C0 9.38 0 4.76 0 0 Z " fill="#FFFFFF" transform="translate(436,226)"/>
<path d="M0 0 C4.62 0 9.24 0 14 0 C14 4.62 14 9.24 14 14 C9.38 14 4.76 14 0 14 C0 9.38 0 4.76 0 0 Z " fill="#FFFFFF" transform="translate(406,226)"/>
<path d="M0 0 C4.62 0 9.24 0 14 0 C14 4.62 14 9.24 14 14 C9.38 14 4.76 14 0 14 C0 9.38 0 4.76 0 0 Z " fill="#FFFFFF" transform="translate(376,226)"/>
<path d="M0 0 C4.62 0 9.24 0 14 0 C14 4.62 14 9.24 14 14 C9.38 14 4.76 14 0 14 C0 9.38 0 4.76 0 0 Z " fill="#FFFFFF" transform="translate(346,226)"/>
<path d="M0 0 C4.62 0 9.24 0 14 0 C14 4.62 14 9.24 14 14 C9.38 14 4.76 14 0 14 C0 9.38 0 4.76 0 0 Z " fill="#FFFFFF" transform="translate(316,226)"/>
<path d="M0 0 C4.62 0 9.24 0 14 0 C14 4.62 14 9.24 14 14 C9.38 14 4.76 14 0 14 C0 9.38 0 4.76 0 0 Z " fill="#FFFFFF" transform="translate(286,226)"/>
<path d="M0 0 C4.62 0 9.24 0 14 0 C14 4.62 14 9.24 14 14 C9.38 14 4.76 14 0 14 C0 9.38 0 4.76 0 0 Z " fill="#FFFFFF" transform="translate(256,226)"/>
<path d="M0 0 C4.62 0 9.24 0 14 0 C14 4.62 14 9.24 14 14 C9.38 14 4.76 14 0 14 C0 9.38 0 4.76 0 0 Z " fill="#FFFFFF" transform="translate(226,226)"/>
<path d="M0 0 C4.62 0 9.24 0 14 0 C14 4.62 14 9.24 14 14 C9.38 14 4.76 14 0 14 C0 9.38 0 4.76 0 0 Z " fill="#FFFFFF" transform="translate(196,226)"/>
<path d="M0 0 C4.62 0 9.24 0 14 0 C14 4.62 14 9.24 14 14 C9.38 14 4.76 14 0 14 C0 9.38 0 4.76 0 0 Z " fill="#FFFFFF" transform="translate(166,226)"/>
<path d="M0 0 C4.62 0 9.24 0 14 0 C14 4.62 14 9.24 14 14 C9.38 14 4.76 14 0 14 C0 9.38 0 4.76 0 0 Z " fill="#FFFFFF" transform="translate(16,226)"/>
<path d="M0 0 C4.62 0 9.24 0 14 0 C14 4.62 14 9.24 14 14 C9.38 14 4.76 14 0 14 C0 9.38 0 4.76 0 0 Z " fill="#FFFFFF" transform="translate(571,211)"/>
<path d="M0 0 C4.62 0 9.24 0 14 0 C14 4.62 14 9.24 14 14 C9.38 14 4.76 14 0 14 C0 9.38 0 4.76 0 0 Z " fill="#FFFFFF" transform="translate(541,211)"/>
<path d="M0 0 C4.62 0 9.24 0 14 0 C14 4.62 14 9.24 14 14 C9.38 14 4.76 14 0 14 C0 9.38 0 4.76 0 0 Z " fill="#FFFFFF" transform="translate(511,211)"/>
<path d="M0 0 C4.62 0 9.24 0 14 0 C14 4.62 14 9.24 14 14 C9.38 14 4.76 14 0 14 C0 9.38 0 4.76 0 0 Z " fill="#FFFFFF" transform="translate(481,211)"/>
<path d="M0 0 C4.62 0 9.24 0 14 0 C14 4.62 14 9.24 14 14 C9.38 14 4.76 14 0 14 C0 9.38 0 4.76 0 0 Z " fill="#FFFFFF" transform="translate(451,211)"/>
<path d="M0 0 C4.62 0 9.24 0 14 0 C14 4.62 14 9.24 14 14 C9.38 14 4.76 14 0 14 C0 9.38 0 4.76 0 0 Z " fill="#FFFFFF" transform="translate(421,211)"/>
<path d="M0 0 C4.62 0 9.24 0 14 0 C14 4.62 14 9.24 14 14 C9.38 14 4.76 14 0 14 C0 9.38 0 4.76 0 0 Z " fill="#FFFFFF" transform="translate(391,211)"/>
<path d="M0 0 C4.62 0 9.24 0 14 0 C14 4.62 14 9.24 14 14 C9.38 14 4.76 14 0 14 C0 9.38 0 4.76 0 0 Z " fill="#FFFFFF" transform="translate(361,211)"/>
<path d="M0 0 C4.62 0 9.24 0 14 0 C14 4.62 14 9.24 14 14 C9.38 14 4.76 14 0 14 C0 9.38 0 4.76 0 0 Z " fill="#FFFFFF" transform="translate(331,211)"/>
<path d="M0 0 C4.62 0 9.24 0 14 0 C14 4.62 14 9.24 14 14 C9.38 14 4.76 14 0 14 C0 9.38 0 4.76 0 0 Z " fill="#FFFFFF" transform="translate(301,211)"/>
<path d="M0 0 C4.62 0 9.24 0 14 0 C14 4.62 14 9.24 14 14 C9.38 14 4.76 14 0 14 C0 9.38 0 4.76 0 0 Z " fill="#FFFFFF" transform="translate(271,211)"/>
<path d="M0 0 C4.62 0 9.24 0 14 0 C14 4.62 14 9.24 14 14 C9.38 14 4.76 14 0 14 C0 9.38 0 4.76 0 0 Z " fill="#FFFFFF" transform="translate(241,211)"/>
<path d="M0 0 C4.62 0 9.24 0 14 0 C14 4.62 14 9.24 14 14 C9.38 14 4.76 14 0 14 C0 9.38 0 4.76 0 0 Z " fill="#FFFFFF" transform="translate(211,211)"/>
<path d="M0 0 C4.62 0 9.24 0 14 0 C14 4.62 14 9.24 14 14 C9.38 14 4.76 14 0 14 C0 9.38 0 4.76 0 0 Z " fill="#FFFFFF" transform="translate(181,211)"/>
<path d="M0 0 C4.62 0 9.24 0 14 0 C14 4.62 14 9.24 14 14 C9.38 14 4.76 14 0 14 C0 9.38 0 4.76 0 0 Z " fill="#FFFFFF" transform="translate(586,196)"/>
<path d="M0 0 C4.62 0 9.24 0 14 0 C14 4.62 14 9.24 14 14 C9.38 14 4.76 14 0 14 C0 9.38 0 4.76 0 0 Z " fill="#FFFFFF" transform="translate(556,196)"/>
<path d="M0 0 C4.62 0 9.24 0 14 0 C14 4.62 14 9.24 14 14 C9.38 14 4.76 14 0 14 C0 9.38 0 4.76 0 0 Z " fill="#FFFFFF" transform="translate(526,196)"/>
<path d="M0 0 C4.62 0 9.24 0 14 0 C14 4.62 14 9.24 14 14 C9.38 14 4.76 14 0 14 C0 9.38 0 4.76 0 0 Z " fill="#FFFFFF" transform="translate(496,196)"/>
<path d="M0 0 C4.62 0 9.24 0 14 0 C14 4.62 14 9.24 14 14 C9.38 14 4.76 14 0 14 C0 9.38 0 4.76 0 0 Z " fill="#FFFFFF" transform="translate(466,196)"/>
<path d="M0 0 C4.62 0 9.24 0 14 0 C14 4.62 14 9.24 14 14 C9.38 14 4.76 14 0 14 C0 9.38 0 4.76 0 0 Z " fill="#FFFFFF" transform="translate(436,196)"/>
<path d="M0 0 C4.62 0 9.24 0 14 0 C14 4.62 14 9.24 14 14 C9.38 14 4.76 14 0 14 C0 9.38 0 4.76 0 0 Z " fill="#FFFFFF" transform="translate(406,196)"/>
<path d="M0 0 C4.62 0 9.24 0 14 0 C14 4.62 14 9.24 14 14 C9.38 14 4.76 14 0 14 C0 9.38 0 4.76 0 0 Z " fill="#FFFFFF" transform="translate(376,196)"/>
<path d="M0 0 C4.62 0 9.24 0 14 0 C14 4.62 14 9.24 14 14 C9.38 14 4.76 14 0 14 C0 9.38 0 4.76 0 0 Z " fill="#FFFFFF" transform="translate(346,196)"/>
<path d="M0 0 C4.62 0 9.24 0 14 0 C14 4.62 14 9.24 14 14 C9.38 14 4.76 14 0 14 C0 9.38 0 4.76 0 0 Z " fill="#FFFFFF" transform="translate(316,196)"/>
<path d="M0 0 C4.62 0 9.24 0 14 0 C14 4.62 14 9.24 14 14 C9.38 14 4.76 14 0 14 C0 9.38 0 4.76 0 0 Z " fill="#FFFFFF" transform="translate(286,196)"/>
<path d="M0 0 C4.62 0 9.24 0 14 0 C14 4.62 14 9.24 14 14 C9.38 14 4.76 14 0 14 C0 9.38 0 4.76 0 0 Z " fill="#FFFFFF" transform="translate(256,196)"/>
<path d="M0 0 C4.62 0 9.24 0 14 0 C14 4.62 14 9.24 14 14 C9.38 14 4.76 14 0 14 C0 9.38 0 4.76 0 0 Z " fill="#FFFFFF" transform="translate(226,196)"/>
<path d="M0 0 C4.62 0 9.24 0 14 0 C14 4.62 14 9.24 14 14 C9.38 14 4.76 14 0 14 C0 9.38 0 4.76 0 0 Z " fill="#FFFFFF" transform="translate(196,196)"/>
<path d="M0 0 C4.62 0 9.24 0 14 0 C14 4.62 14 9.24 14 14 C9.38 14 4.76 14 0 14 C0 9.38 0 4.76 0 0 Z " fill="#FFFFFF" transform="translate(16,196)"/>
<path d="M0 0 C4.62 0 9.24 0 14 0 C14 4.62 14 9.24 14 14 C9.38 14 4.76 14 0 14 C0 9.38 0 4.76 0 0 Z " fill="#FFFFFF" transform="translate(571,181)"/>
<path d="M0 0 C4.62 0 9.24 0 14 0 C14 4.62 14 9.24 14 14 C9.38 14 4.76 14 0 14 C0 9.38 0 4.76 0 0 Z " fill="#FFFFFF" transform="translate(541,181)"/>
<path d="M0 0 C4.62 0 9.24 0 14 0 C14 4.62 14 9.24 14 14 C9.38 14 4.76 14 0 14 C0 9.38 0 4.76 0 0 Z " fill="#FFFFFF" transform="translate(511,181)"/>
<path d="M0 0 C4.62 0 9.24 0 14 0 C14 4.62 14 9.24 14 14 C9.38 14 4.76 14 0 14 C0 9.38 0 4.76 0 0 Z " fill="#FFFFFF" transform="translate(481,181)"/>
<path d="M0 0 C4.62 0 9.24 0 14 0 C14 4.62 14 9.24 14 14 C9.38 14 4.76 14 0 14 C0 9.38 0 4.76 0 0 Z " fill="#FFFFFF" transform="translate(451,181)"/>
<path d="M0 0 C4.62 0 9.24 0 14 0 C14 4.62 14 9.24 14 14 C9.38 14 4.76 14 0 14 C0 9.38 0 4.76 0 0 Z " fill="#FFFFFF" transform="translate(421,181)"/>
<path d="M0 0 C4.62 0 9.24 0 14 0 C14 4.62 14 9.24 14 14 C9.38 14 4.76 14 0 14 C0 9.38 0 4.76 0 0 Z " fill="#FFFFFF" transform="translate(391,181)"/>
<path d="M0 0 C4.62 0 9.24 0 14 0 C14 4.62 14 9.24 14 14 C9.38 14 4.76 14 0 14 C0 9.38 0 4.76 0 0 Z " fill="#FFFFFF" transform="translate(361,181)"/>
<path d="M0 0 C4.62 0 9.24 0 14 0 C14 4.62 14 9.24 14 14 C9.38 14 4.76 14 0 14 C0 9.38 0 4.76 0 0 Z " fill="#FFFFFF" transform="translate(331,181)"/>
<path d="M0 0 C4.62 0 9.24 0 14 0 C14 4.62 14 9.24 14 14 C9.38 14 4.76 14 0 14 C0 9.38 0 4.76 0 0 Z " fill="#FFFFFF" transform="translate(301,181)"/>
<path d="M0 0 C4.62 0 9.24 0 14 0 C14 4.62 14 9.24 14 14 C9.38 14 4.76 14 0 14 C0 9.38 0 4.76 0 0 Z " fill="#FFFFFF" transform="translate(271,181)"/>
<path d="M0 0 C4.62 0 9.24 0 14 0 C14 4.62 14 9.24 14 14 C9.38 14 4.76 14 0 14 C0 9.38 0 4.76 0 0 Z " fill="#FFFFFF" transform="translate(241,181)"/>
<path d="M0 0 C4.62 0 9.24 0 14 0 C14 4.62 14 9.24 14 14 C9.38 14 4.76 14 0 14 C0 9.38 0 4.76 0 0 Z " fill="#FFFFFF" transform="translate(211,181)"/>
<path d="M0 0 C4.62 0 9.24 0 14 0 C14 4.62 14 9.24 14 14 C9.38 14 4.76 14 0 14 C0 9.38 0 4.76 0 0 Z " fill="#FFFFFF" transform="translate(31,181)"/>
<path d="M0 0 C4.62 0 9.24 0 14 0 C14 4.62 14 9.24 14 14 C9.38 14 4.76 14 0 14 C0 9.38 0 4.76 0 0 Z " fill="#FFFFFF" transform="translate(586,166)"/>
<path d="M0 0 C4.62 0 9.24 0 14 0 C14 4.62 14 9.24 14 14 C9.38 14 4.76 14 0 14 C0 9.38 0 4.76 0 0 Z " fill="#FFFFFF" transform="translate(556,166)"/>
<path d="M0 0 C4.62 0 9.24 0 14 0 C14 4.62 14 9.24 14 14 C9.38 14 4.76 14 0 14 C0 9.38 0 4.76 0 0 Z " fill="#FFFFFF" transform="translate(526,166)"/>
<path d="M0 0 C4.62 0 9.24 0 14 0 C14 4.62 14 9.24 14 14 C9.38 14 4.76 14 0 14 C0 9.38 0 4.76 0 0 Z " fill="#FFFFFF" transform="translate(496,166)"/>
<path d="M0 0 C4.62 0 9.24 0 14 0 C14 4.62 14 9.24 14 14 C9.38 14 4.76 14 0 14 C0 9.38 0 4.76 0 0 Z " fill="#FFFFFF" transform="translate(466,166)"/>
<path d="M0 0 C4.62 0 9.24 0 14 0 C14 4.62 14 9.24 14 14 C9.38 14 4.76 14 0 14 C0 9.38 0 4.76 0 0 Z " fill="#FFFFFF" transform="translate(436,166)"/>
<path d="M0 0 C4.62 0 9.24 0 14 0 C14 4.62 14 9.24 14 14 C9.38 14 4.76 14 0 14 C0 9.38 0 4.76 0 0 Z " fill="#FFFFFF" transform="translate(376,166)"/>
<path d="M0 0 C4.62 0 9.24 0 14 0 C14 4.62 14 9.24 14 14 C9.38 14 4.76 14 0 14 C0 9.38 0 4.76 0 0 Z " fill="#FFFFFF" transform="translate(346,166)"/>
<path d="M0 0 C4.62 0 9.24 0 14 0 C14 4.62 14 9.24 14 14 C9.38 14 4.76 14 0 14 C0 9.38 0 4.76 0 0 Z " fill="#FFFFFF" transform="translate(316,166)"/>
<path d="M0 0 C4.62 0 9.24 0 14 0 C14 4.62 14 9.24 14 14 C9.38 14 4.76 14 0 14 C0 9.38 0 4.76 0 0 Z " fill="#FFFFFF" transform="translate(286,166)"/>
<path d="M0 0 C4.62 0 9.24 0 14 0 C14 4.62 14 9.24 14 14 C9.38 14 4.76 14 0 14 C0 9.38 0 4.76 0 0 Z " fill="#FFFFFF" transform="translate(256,166)"/>
<path d="M0 0 C4.62 0 9.24 0 14 0 C14 4.62 14 9.24 14 14 C9.38 14 4.76 14 0 14 C0 9.38 0 4.76 0 0 Z " fill="#FFFFFF" transform="translate(226,166)"/>
<path d="M0 0 C4.62 0 9.24 0 14 0 C14 4.62 14 9.24 14 14 C9.38 14 4.76 14 0 14 C0 9.38 0 4.76 0 0 Z " fill="#FFFFFF" transform="translate(16,166)"/>
<path d="M0 0 C4.62 0 9.24 0 14 0 C14 4.62 14 9.24 14 14 C9.38 14 4.76 14 0 14 C0 9.38 0 4.76 0 0 Z " fill="#FFFFFF" transform="translate(571,151)"/>
<path d="M0 0 C4.62 0 9.24 0 14 0 C14 4.62 14 9.24 14 14 C9.38 14 4.76 14 0 14 C0 9.38 0 4.76 0 0 Z " fill="#FFFFFF" transform="translate(541,151)"/>
<path d="M0 0 C4.62 0 9.24 0 14 0 C14 4.62 14 9.24 14 14 C9.38 14 4.76 14 0 14 C0 9.38 0 4.76 0 0 Z " fill="#FFFFFF" transform="translate(511,151)"/>
<path d="M0 0 C4.62 0 9.24 0 14 0 C14 4.62 14 9.24 14 14 C9.38 14 4.76 14 0 14 C0 9.38 0 4.76 0 0 Z " fill="#FFFFFF" transform="translate(481,151)"/>
<path d="M0 0 C4.62 0 9.24 0 14 0 C14 4.62 14 9.24 14 14 C9.38 14 4.76 14 0 14 C0 9.38 0 4.76 0 0 Z " fill="#FFFFFF" transform="translate(451,151)"/>
<path d="M0 0 C4.62 0 9.24 0 14 0 C14 4.62 14 9.24 14 14 C9.38 14 4.76 14 0 14 C0 9.38 0 4.76 0 0 Z " fill="#FFFFFF" transform="translate(361,151)"/>
<path d="M0 0 C4.62 0 9.24 0 14 0 C14 4.62 14 9.24 14 14 C9.38 14 4.76 14 0 14 C0 9.38 0 4.76 0 0 Z " fill="#FFFFFF" transform="translate(331,151)"/>
<path d="M0 0 C4.62 0 9.24 0 14 0 C14 4.62 14 9.24 14 14 C9.38 14 4.76 14 0 14 C0 9.38 0 4.76 0 0 Z " fill="#FFFFFF" transform="translate(301,151)"/>
<path d="M0 0 C4.62 0 9.24 0 14 0 C14 4.62 14 9.24 14 14 C9.38 14 4.76 14 0 14 C0 9.38 0 4.76 0 0 Z " fill="#FFFFFF" transform="translate(271,151)"/>
<path d="M0 0 C4.62 0 9.24 0 14 0 C14 4.62 14 9.24 14 14 C9.38 14 4.76 14 0 14 C0 9.38 0 4.76 0 0 Z " fill="#FFFFFF" transform="translate(241,151)"/>
<path d="M0 0 C4.62 0 9.24 0 14 0 C14 4.62 14 9.24 14 14 C9.38 14 4.76 14 0 14 C0 9.38 0 4.76 0 0 Z " fill="#FFFFFF" transform="translate(31,151)"/>
<path d="M0 0 C4.62 0 9.24 0 14 0 C14 4.62 14 9.24 14 14 C9.38 14 4.76 14 0 14 C0 9.38 0 4.76 0 0 Z " fill="#FFFFFF" transform="translate(586,136)"/>
<path d="M0 0 C4.62 0 9.24 0 14 0 C14 4.62 14 9.24 14 14 C9.38 14 4.76 14 0 14 C0 9.38 0 4.76 0 0 Z " fill="#FFFFFF" transform="translate(556,136)"/>
<path d="M0 0 C4.62 0 9.24 0 14 0 C14 4.62 14 9.24 14 14 C9.38 14 4.76 14 0 14 C0 9.38 0 4.76 0 0 Z " fill="#FFFFFF" transform="translate(526,136)"/>
<path d="M0 0 C4.62 0 9.24 0 14 0 C14 4.62 14 9.24 14 14 C9.38 14 4.76 14 0 14 C0 9.38 0 4.76 0 0 Z " fill="#FFFFFF" transform="translate(496,136)"/>
<path d="M0 0 C4.62 0 9.24 0 14 0 C14 4.62 14 9.24 14 14 C9.38 14 4.76 14 0 14 C0 9.38 0 4.76 0 0 Z " fill="#FFFFFF" transform="translate(466,136)"/>
<path d="M0 0 C4.62 0 9.24 0 14 0 C14 4.62 14 9.24 14 14 C9.38 14 4.76 14 0 14 C0 9.38 0 4.76 0 0 Z " fill="#FFFFFF" transform="translate(316,136)"/>
<path d="M0 0 C4.62 0 9.24 0 14 0 C14 4.62 14 9.24 14 14 C9.38 14 4.76 14 0 14 C0 9.38 0 4.76 0 0 Z " fill="#FFFFFF" transform="translate(286,136)"/>
<path d="M0 0 C4.62 0 9.24 0 14 0 C14 4.62 14 9.24 14 14 C9.38 14 4.76 14 0 14 C0 9.38 0 4.76 0 0 Z " fill="#FFFFFF" transform="translate(46,136)"/>
<path d="M0 0 C4.62 0 9.24 0 14 0 C14 4.62 14 9.24 14 14 C9.38 14 4.76 14 0 14 C0 9.38 0 4.76 0 0 Z " fill="#FFFFFF" transform="translate(16,136)"/>
<path d="M0 0 C4.62 0 9.24 0 14 0 C14 4.62 14 9.24 14 14 C9.38 14 4.76 14 0 14 C0 9.38 0 4.76 0 0 Z " fill="#FFFFFF" transform="translate(571,121)"/>
<path d="M0 0 C4.62 0 9.24 0 14 0 C14 4.62 14 9.24 14 14 C9.38 14 4.76 14 0 14 C0 9.38 0 4.76 0 0 Z " fill="#FFFFFF" transform="translate(541,121)"/>
<path d="M0 0 C4.62 0 9.24 0 14 0 C14 4.62 14 9.24 14 14 C9.38 14 4.76 14 0 14 C0 9.38 0 4.76 0 0 Z " fill="#FFFFFF" transform="translate(511,121)"/>
<path d="M0 0 C4.62 0 9.24 0 14 0 C14 4.62 14 9.24 14 14 C9.38 14 4.76 14 0 14 C0 9.38 0 4.76 0 0 Z " fill="#FFFFFF" transform="translate(481,121)"/>
<path d="M0 0 C4.62 0 9.24 0 14 0 C14 4.62 14 9.24 14 14 C9.38 14 4.76 14 0 14 C0 9.38 0 4.76 0 0 Z " fill="#FFFFFF" transform="translate(61,121)"/>
<path d="M0 0 C4.62 0 9.24 0 14 0 C14 4.62 14 9.24 14 14 C9.38 14 4.76 14 0 14 C0 9.38 0 4.76 0 0 Z " fill="#FFFFFF" transform="translate(31,121)"/>
<path d="M0 0 C4.62 0 9.24 0 14 0 C14 4.62 14 9.24 14 14 C9.38 14 4.76 14 0 14 C0 9.38 0 4.76 0 0 Z " fill="#FFFFFF" transform="translate(586,106)"/>
<path d="M0 0 C4.62 0 9.24 0 14 0 C14 4.62 14 9.24 14 14 C9.38 14 4.76 14 0 14 C0 9.38 0 4.76 0 0 Z " fill="#FFFFFF" transform="translate(556,106)"/>
<path d="M0 0 C4.62 0 9.24 0 14 0 C14 4.62 14 9.24 14 14 C9.38 14 4.76 14 0 14 C0 9.38 0 4.76 0 0 Z " fill="#FFFFFF" transform="translate(526,106)"/>
<path d="M0 0 C4.62 0 9.24 0 14 0 C14 4.62 14 9.24 14 14 C9.38 14 4.76 14 0 14 C0 9.38 0 4.76 0 0 Z " fill="#FFFFFF" transform="translate(496,106)"/>
<path d="M0 0 C4.62 0 9.24 0 14 0 C14 4.62 14 9.24 14 14 C9.38 14 4.76 14 0 14 C0 9.38 0 4.76 0 0 Z " fill="#FFFFFF" transform="translate(76,106)"/>
<path d="M0 0 C4.62 0 9.24 0 14 0 C14 4.62 14 9.24 14 14 C9.38 14 4.76 14 0 14 C0 9.38 0 4.76 0 0 Z " fill="#FFFFFF" transform="translate(46,106)"/>
<path d="M0 0 C4.62 0 9.24 0 14 0 C14 4.62 14 9.24 14 14 C9.38 14 4.76 14 0 14 C0 9.38 0 4.76 0 0 Z " fill="#FFFFFF" transform="translate(16,106)"/>
<path d="M0 0 C4.62 0 9.24 0 14 0 C14 4.62 14 9.24 14 14 C9.38 14 4.76 14 0 14 C0 9.38 0 4.76 0 0 Z " fill="#FFFFFF" transform="translate(571,91)"/>
<path d="M0 0 C4.62 0 9.24 0 14 0 C14 4.62 14 9.24 14 14 C9.38 14 4.76 14 0 14 C0 9.38 0 4.76 0 0 Z " fill="#FFFFFF" transform="translate(541,91)"/>
<path d="M0 0 C4.62 0 9.24 0 14 0 C14 4.62 14 9.24 14 14 C9.38 14 4.76 14 0 14 C0 9.38 0 4.76 0 0 Z " fill="#FFFFFF" transform="translate(511,91)"/>
<path d="M0 0 C4.62 0 9.24 0 14 0 C14 4.62 14 9.24 14 14 C9.38 14 4.76 14 0 14 C0 9.38 0 4.76 0 0 Z " fill="#FFFFFF" transform="translate(91,91)"/>
<path d="M0 0 C4.62 0 9.24 0 14 0 C14 4.62 14 9.24 14 14 C9.38 14 4.76 14 0 14 C0 9.38 0 4.76 0 0 Z " fill="#FFFFFF" transform="translate(61,91)"/>
<path d="M0 0 C4.62 0 9.24 0 14 0 C14 4.62 14 9.24 14 14 C9.38 14 4.76 14 0 14 C0 9.38 0 4.76 0 0 Z " fill="#FFFFFF" transform="translate(31,91)"/>
<path d="M0 0 C4.62 0 9.24 0 14 0 C14 4.62 14 9.24 14 14 C9.38 14 4.76 14 0 14 C0 9.38 0 4.76 0 0 Z " fill="#FFFFFF" transform="translate(586,76)"/>
<path d="M0 0 C4.62 0 9.24 0 14 0 C14 4.62 14 9.24 14 14 C9.38 14 4.76 14 0 14 C0 9.38 0 4.76 0 0 Z " fill="#FFFFFF" transform="translate(556,76)"/>
<path d="M0 0 C4.62 0 9.24 0 14 0 C14 4.62 14 9.24 14 14 C9.38 14 4.76 14 0 14 C0 9.38 0 4.76 0 0 Z " fill="#FFFFFF" transform="translate(526,76)"/>
<path d="M0 0 C4.62 0 9.24 0 14 0 C14 4.62 14 9.24 14 14 C9.38 14 4.76 14 0 14 C0 9.38 0 4.76 0 0 Z " fill="#FFFFFF" transform="translate(496,76)"/>
<path d="M0 0 C4.62 0 9.24 0 14 0 C14 4.62 14 9.24 14 14 C9.38 14 4.76 14 0 14 C0 9.38 0 4.76 0 0 Z " fill="#FFFFFF" transform="translate(106,76)"/>
<path d="M0 0 C4.62 0 9.24 0 14 0 C14 4.62 14 9.24 14 14 C9.38 14 4.76 14 0 14 C0 9.38 0 4.76 0 0 Z " fill="#FFFFFF" transform="translate(76,76)"/>
<path d="M0 0 C4.62 0 9.24 0 14 0 C14 4.62 14 9.24 14 14 C9.38 14 4.76 14 0 14 C0 9.38 0 4.76 0 0 Z " fill="#FFFFFF" transform="translate(46,76)"/>
<path d="M0 0 C4.62 0 9.24 0 14 0 C14 4.62 14 9.24 14 14 C9.38 14 4.76 14 0 14 C0 9.38 0 4.76 0 0 Z " fill="#FFFFFF" transform="translate(16,76)"/>
<path d="M0 0 C4.62 0 9.24 0 14 0 C14 4.62 14 9.24 14 14 C9.38 14 4.76 14 0 14 C0 9.38 0 4.76 0 0 Z " fill="#FFFFFF" transform="translate(571,61)"/>
<path d="M0 0 C4.62 0 9.24 0 14 0 C14 4.62 14 9.24 14 14 C9.38 14 4.76 14 0 14 C0 9.38 0 4.76 0 0 Z " fill="#FFFFFF" transform="translate(541,61)"/>
<path d="M0 0 C4.62 0 9.24 0 14 0 C14 4.62 14 9.24 14 14 C9.38 14 4.76 14 0 14 C0 9.38 0 4.76 0 0 Z " fill="#FFFFFF" transform="translate(511,61)"/>
<path d="M0 0 C4.62 0 9.24 0 14 0 C14 4.62 14 9.24 14 14 C9.38 14 4.76 14 0 14 C0 9.38 0 4.76 0 0 Z " fill="#FFFFFF" transform="translate(481,61)"/>
<path d="M0 0 C4.62 0 9.24 0 14 0 C14 4.62 14 9.24 14 14 C9.38 14 4.76 14 0 14 C0 9.38 0 4.76 0 0 Z " fill="#FFFFFF" transform="translate(121,61)"/>
<path d="M0 0 C4.62 0 9.24 0 14 0 C14 4.62 14 9.24 14 14 C9.38 14 4.76 14 0 14 C0 9.38 0 4.76 0 0 Z " fill="#FFFFFF" transform="translate(91,61)"/>
<path d="M0 0 C4.62 0 9.24 0 14 0 C14 4.62 14 9.24 14 14 C9.38 14 4.76 14 0 14 C0 9.38 0 4.76 0 0 Z " fill="#FFFFFF" transform="translate(61,61)"/>
<path d="M0 0 C4.62 0 9.24 0 14 0 C14 4.62 14 9.24 14 14 C9.38 14 4.76 14 0 14 C0 9.38 0 4.76 0 0 Z " fill="#FFFFFF" transform="translate(31,61)"/>
<path d="M0 0 C4.62 0 9.24 0 14 0 C14 4.62 14 9.24 14 14 C9.38 14 4.76 14 0 14 C0 9.38 0 4.76 0 0 Z " fill="#FFFFFF" transform="translate(586,46)"/>
<path d="M0 0 C4.62 0 9.24 0 14 0 C14 4.62 14 9.24 14 14 C9.38 14 4.76 14 0 14 C0 9.38 0 4.76 0 0 Z " fill="#FFFFFF" transform="translate(556,46)"/>
<path d="M0 0 C4.62 0 9.24 0 14 0 C14 4.62 14 9.24 14 14 C9.38 14 4.76 14 0 14 C0 9.38 0 4.76 0 0 Z " fill="#FFFFFF" transform="translate(526,46)"/>
<path d="M0 0 C4.62 0 9.24 0 14 0 C14 4.62 14 9.24 14 14 C9.38 14 4.76 14 0 14 C0 9.38 0 4.76 0 0 Z " fill="#FFFFFF" transform="translate(496,46)"/>
<path d="M0 0 C4.62 0 9.24 0 14 0 C14 4.62 14 9.24 14 14 C9.38 14 4.76 14 0 14 C0 9.38 0 4.76 0 0 Z " fill="#FFFFFF" transform="translate(466,46)"/>
<path d="M0 0 C4.62 0 9.24 0 14 0 C14 4.62 14 9.24 14 14 C9.38 14 4.76 14 0 14 C0 9.38 0 4.76 0 0 Z " fill="#FFFFFF" transform="translate(136,46)"/>
<path d="M0 0 C4.62 0 9.24 0 14 0 C14 4.62 14 9.24 14 14 C9.38 14 4.76 14 0 14 C0 9.38 0 4.76 0 0 Z " fill="#FFFFFF" transform="translate(106,46)"/>
<path d="M0 0 C4.62 0 9.24 0 14 0 C14 4.62 14 9.24 14 14 C9.38 14 4.76 14 0 14 C0 9.38 0 4.76 0 0 Z " fill="#FFFFFF" transform="translate(76,46)"/>
<path d="M0 0 C4.62 0 9.24 0 14 0 C14 4.62 14 9.24 14 14 C9.38 14 4.76 14 0 14 C0 9.38 0 4.76 0 0 Z " fill="#FFFFFF" transform="translate(46,46)"/>
<path d="M0 0 C4.62 0 9.24 0 14 0 C14 4.62 14 9.24 14 14 C9.38 14 4.76 14 0 14 C0 9.38 0 4.76 0 0 Z " fill="#FFFFFF" transform="translate(16,46)"/>
<path d="M0 0 C4.62 0 9.24 0 14 0 C14 4.62 14 9.24 14 14 C9.38 14 4.76 14 0 14 C0 9.38 0 4.76 0 0 Z " fill="#FFFFFF" transform="translate(571,31)"/>
<path d="M0 0 C4.62 0 9.24 0 14 0 C14 4.62 14 9.24 14 14 C9.38 14 4.76 14 0 14 C0 9.38 0 4.76 0 0 Z " fill="#FFFFFF" transform="translate(541,31)"/>
<path d="M0 0 C4.62 0 9.24 0 14 0 C14 4.62 14 9.24 14 14 C9.38 14 4.76 14 0 14 C0 9.38 0 4.76 0 0 Z " fill="#FFFFFF" transform="translate(511,31)"/>
<path d="M0 0 C4.62 0 9.24 0 14 0 C14 4.62 14 9.24 14 14 C9.38 14 4.76 14 0 14 C0 9.38 0 4.76 0 0 Z " fill="#FFFFFF" transform="translate(481,31)"/>
<path d="M0 0 C4.62 0 9.24 0 14 0 C14 4.62 14 9.24 14 14 C9.38 14 4.76 14 0 14 C0 9.38 0 4.76 0 0 Z " fill="#FFFFFF" transform="translate(451,31)"/>
<path d="M0 0 C4.62 0 9.24 0 14 0 C14 4.62 14 9.24 14 14 C9.38 14 4.76 14 0 14 C0 9.38 0 4.76 0 0 Z " fill="#FEFEFE" transform="translate(421,31)"/>
<path d="M0 0 C4.62 0 9.24 0 14 0 C14 4.62 14 9.24 14 14 C9.38 14 4.76 14 0 14 C0 9.38 0 4.76 0 0 Z " fill="#FFFFFF" transform="translate(151,31)"/>
<path d="M0 0 C4.62 0 9.24 0 14 0 C14 4.62 14 9.24 14 14 C9.38 14 4.76 14 0 14 C0 9.38 0 4.76 0 0 Z " fill="#FFFFFF" transform="translate(121,31)"/>
<path d="M0 0 C4.62 0 9.24 0 14 0 C14 4.62 14 9.24 14 14 C9.38 14 4.76 14 0 14 C0 9.38 0 4.76 0 0 Z " fill="#FFFFFF" transform="translate(91,31)"/>
<path d="M0 0 C4.62 0 9.24 0 14 0 C14 4.62 14 9.24 14 14 C9.38 14 4.76 14 0 14 C0 9.38 0 4.76 0 0 Z " fill="#FFFFFF" transform="translate(61,31)"/>
<path d="M0 0 C4.62 0 9.24 0 14 0 C14 4.62 14 9.24 14 14 C9.38 14 4.76 14 0 14 C0 9.38 0 4.76 0 0 Z " fill="#FFFFFF" transform="translate(31,31)"/>
<path d="M0 0 C4.62 0 9.24 0 14 0 C14 4.62 14 9.24 14 14 C9.38 14 4.76 14 0 14 C0 9.38 0 4.76 0 0 Z " fill="#FFFFFF" transform="translate(586,16)"/>
<path d="M0 0 C4.62 0 9.24 0 14 0 C14 4.62 14 9.24 14 14 C9.38 14 4.76 14 0 14 C0 9.38 0 4.76 0 0 Z " fill="#FFFFFF" transform="translate(556,16)"/>
<path d="M0 0 C4.62 0 9.24 0 14 0 C14 4.62 14 9.24 14 14 C9.38 14 4.76 14 0 14 C0 9.38 0 4.76 0 0 Z " fill="#FFFFFF" transform="translate(526,16)"/>
<path d="M0 0 C4.62 0 9.24 0 14 0 C14 4.62 14 9.24 14 14 C9.38 14 4.76 14 0 14 C0 9.38 0 4.76 0 0 Z " fill="#FFFFFF" transform="translate(496,16)"/>
<path d="M0 0 C4.62 0 9.24 0 14 0 C14 4.62 14 9.24 14 14 C9.38 14 4.76 14 0 14 C0 9.38 0 4.76 0 0 Z " fill="#FFFFFF" transform="translate(466,16)"/>
<path d="M0 0 C4.62 0 9.24 0 14 0 C14 4.62 14 9.24 14 14 C9.38 14 4.76 14 0 14 C0 9.38 0 4.76 0 0 Z " fill="#FFFFFF" transform="translate(436,16)"/>
<path d="M0 0 C4.62 0 9.24 0 14 0 C14 4.62 14 9.24 14 14 C9.38 14 4.76 14 0 14 C0 9.38 0 4.76 0 0 Z " fill="#FFFFFF" transform="translate(406,16)"/>
<path d="M0 0 C4.62 0 9.24 0 14 0 C14 4.62 14 9.24 14 14 C9.38 14 4.76 14 0 14 C0 9.38 0 4.76 0 0 Z " fill="#FFFFFF" transform="translate(196,16)"/>
<path d="M0 0 C4.62 0 9.24 0 14 0 C14 4.62 14 9.24 14 14 C9.38 14 4.76 14 0 14 C0 9.38 0 4.76 0 0 Z " fill="#FFFFFF" transform="translate(166,16)"/>
<path d="M0 0 C4.62 0 9.24 0 14 0 C14 4.62 14 9.24 14 14 C9.38 14 4.76 14 0 14 C0 9.38 0 4.76 0 0 Z " fill="#FFFFFF" transform="translate(136,16)"/>
<path d="M0 0 C4.62 0 9.24 0 14 0 C14 4.62 14 9.24 14 14 C9.38 14 4.76 14 0 14 C0 9.38 0 4.76 0 0 Z " fill="#FFFFFF" transform="translate(106,16)"/>
<path d="M0 0 C4.62 0 9.24 0 14 0 C14 4.62 14 9.24 14 14 C9.38 14 4.76 14 0 14 C0 9.38 0 4.76 0 0 Z " fill="#FFFFFF" transform="translate(76,16)"/>
<path d="M0 0 C4.62 0 9.24 0 14 0 C14 4.62 14 9.24 14 14 C9.38 14 4.76 14 0 14 C0 9.38 0 4.76 0 0 Z " fill="#FFFFFF" transform="translate(46,16)"/>
<path d="M0 0 C4.62 0 9.24 0 14 0 C14 4.62 14 9.24 14 14 C9.38 14 4.76 14 0 14 C0 9.38 0 4.76 0 0 Z " fill="#FFFFFF" transform="translate(16,16)"/>
<path d="M0 0 C4.62 0 9.24 0 14 0 C14 4.29 14 8.58 14 13 C11.23547967 14.38226016 8.9538637 14.09525387 5.875 14.0625 C3.93625 14.041875 1.9975 14.02125 0 14 C0 9.38 0 4.76 0 0 Z " fill="#FEFEFE" transform="translate(376,436)"/>
<path d="M0 0 C4.62 0 9.24 0 14 0 C14 4.62 14 9.24 14 14 C12.06125 14.020625 10.1225 14.04125 8.125 14.0625 C7.03445313 14.07410156 5.94390625 14.08570313 4.8203125 14.09765625 C2 14 2 14 0 13 C0 8.71 0 4.42 0 0 Z " fill="#FEFDFD" transform="translate(376,16)"/>
<path d="M0 0 C4.58984375 0.09765625 4.58984375 0.09765625 9.1796875 0.1953125 C9.1796875 4.8153125 9.1796875 9.4353125 9.1796875 14.1953125 C4.5596875 14.1953125 -0.0603125 14.1953125 -4.8203125 14.1953125 C-5.015625 5.015625 -5.015625 5.015625 -4.8203125 2.1953125 C-2.8203125 0.1953125 -2.8203125 0.1953125 0 0 Z " fill="#FFFFFF" transform="translate(455.8203125,540.8046875)"/>
<path d="M0 0 C4.62 0 9.24 0 14 0 C14 4.62 14 9.24 14 14 C3.375 14.25 3.375 14.25 0 12 C-0.41820365 7.97409284 -0.12945079 4.05612469 0 0 Z " fill="#FEFEFE" transform="translate(226,436)"/>
<path d="M0 0 C0 4.62 0 9.24 0 14 C-4.62 14 -9.24 14 -14 14 C-14.29296875 4.8203125 -14.29296875 4.8203125 -14 2 C-9.43362969 -1.04424687 -5.43284541 -0.12783166 0 0 Z " fill="#FEFEFE" transform="translate(570,406)"/>
<path d="M0 0 C4.29 0 8.58 0 13 0 C13 4.62 13 9.24 13 14 C8.38 14 3.76 14 -1 14 C-1.0749534 8.97812188 -0.99276881 4.96384404 0 0 Z " fill="#FDFDFE" transform="translate(572,331)"/>
<path d="M0 0 C4.62 0 9.24 0 14 0 C14 3.96 14 7.92 14 12 C10.13209997 13.93395001 8.8499541 14.23289353 4.75 14.125 C3.1825 14.08375 1.615 14.0425 0 14 C0 9.38 0 4.76 0 0 Z " fill="#FEFEFE" transform="translate(181,31)"/>
<path d="M0 0 C4.62 0 9.24 0 14 0 C14.17139041 5.74157877 14.18918389 8.52704027 12 14 C8.04 14 4.08 14 0 14 C0 9.38 0 4.76 0 0 Z " fill="#FEFEFC" transform="translate(16,256)"/>
<path d="M0 0 C2.76692708 0.13020833 5.53385417 0.26041667 8.30078125 0.390625 C8.30078125 5.010625 8.30078125 9.630625 8.30078125 14.390625 C3.68078125 14.390625 -0.93921875 14.390625 -5.69921875 14.390625 C-6.06507241 5.12233232 -6.06507241 5.12233232 -4.54296875 2.078125 C-2.69921875 0.390625 -2.69921875 0.390625 0 0 Z " fill="#FEFEFE" transform="translate(531.69921875,465.609375)"/>
<path d="M0 0 C3.96 0 7.92 0 12 0 C13.97094808 4.92737019 14.1799928 8.78020872 14 14 C9.38 14 4.76 14 0 14 C0 9.38 0 4.76 0 0 Z " fill="#FEFEFC" transform="translate(31,391)"/>
<path d="M0 0 C4.62 0 9.24 0 14 0 C14 3.96 14 7.92 14 12 C8.7148149 13.72577473 5.96472769 14 0 14 C0 9.38 0 4.76 0 0 Z " fill="#FEFDFD" transform="translate(226,16)"/>
<path d="M0 0 C9.18160561 -0.604053 9.18160561 -0.604053 12.625 1.9375 C14.53468815 6.19089634 14.27703655 9.35963783 14 14 C9.38 14 4.76 14 0 14 C0 9.38 0 4.76 0 0 Z " fill="#FEFEFE" transform="translate(61,451)"/>
<path d="M0 0 C0 4.62 0 9.24 0 14 C-4.62 14 -9.24 14 -14 14 C-14 10.04 -14 6.08 -14 2 C-8.7148149 0.27422527 -5.96472769 0 0 0 Z " fill="#FEFDFD" transform="translate(270,136)"/>
<path d="M0 0 C4.29 0 8.58 0 13 0 C13 4.62 13 9.24 13 14 C8.71 14 4.42 14 0 14 C0 9.38 0 4.76 0 0 Z " fill="#FEFEFE" transform="translate(572,271)"/>
<path d="M0 0 C0 4.62 0 9.24 0 14 C-4.62 14 -9.24 14 -14 14 C-14.82403433 7.17228694 -14.82403433 7.17228694 -12.6875 4.1328125 C-8.09554971 -0.15164112 -7.02112902 0 0 0 Z " fill="#FDFEFD" transform="translate(480,526)"/>
<path d="M0 0 C4.62 0 9.24 0 14 0 C13.46148032 5.27749285 12.22656164 9.25645564 10 14 C6.7 14 3.4 14 0 14 C0 9.38 0 4.76 0 0 Z " fill="#FDFDFE" transform="translate(436,376)"/>
<path d="M0 0 C9.57142857 2 9.57142857 2 14 4 C14 7.3 14 10.6 14 14 C9.38 14 4.76 14 0 14 C0 9.38 0 4.76 0 0 Z " fill="#FEFCFC" transform="translate(346,136)"/>
<path d="M0 0 C6.33429962 0 7.79982624 0.45356914 12.4296875 4.1328125 C14.30268214 6.35990563 14.51023659 7.49851865 14.5 10.375 C14.335 11.57125 14.17 12.7675 14 14 C9.38 14 4.76 14 0 14 C0 9.38 0 4.76 0 0 Z " fill="#FDFEFD" transform="translate(136,526)"/>
<path d="M0 0 C3.96 0 7.92 0 12 0 C12 4.62 12 9.24 12 14 C8.04 14 4.08 14 0 14 C0 9.38 0 4.76 0 0 Z " fill="#FEFEFD" transform="translate(16,316)"/>
<path d="M0 0 C3.96 0 7.92 0 12 0 C12 4.62 12 9.24 12 14 C8.04 14 4.08 14 0 14 C0 9.38 0 4.76 0 0 Z " fill="#FFFFFF" transform="translate(573,301)"/>
<path d="M0 0 C4.62 0 9.24 0 14 0 C13.16184862 4.19075691 12.49330151 6.28073843 10.4375 9.8125 C9.98246094 10.60269531 9.52742188 11.39289063 9.05859375 12.20703125 C8.70925781 12.79871094 8.35992187 13.39039063 8 14 C5.36 14 2.72 14 0 14 C0 9.38 0 4.76 0 0 Z " fill="#FEFDFC" transform="translate(46,166)"/>
<path d="M0 0 C0 4.62 0 9.24 0 14 C-4.62 14 -9.24 14 -14 14 C-14 8 -14 8 -12.20703125 5.6640625 C-11.41683594 4.99117187 -10.62664062 4.31828125 -9.8125 3.625 C-9.03519531 2.93664062 -8.25789062 2.24828125 -7.45703125 1.5390625 C-5 0 -5 0 0 0 Z " fill="#FEFDFD" transform="translate(210,166)"/>
<path d="M0 0 C0 3.96 0 7.92 0 12 C-4.62 12 -9.24 12 -14 12 C-14 8.7 -14 5.4 -14 2 C-9.03075968 0.81331575 -5.14709808 0 0 0 Z " fill="#FDFEFD" transform="translate(375,573)"/>
<path d="M0 0 C0 4.62 0 9.24 0 14 C-4.62 14 -9.24 14 -14 14 C-14 10.12639061 -13.83314373 8.00833751 -11.328125 4.9765625 C-5.925 0 -5.925 0 0 0 Z " fill="#FDFEFE" transform="translate(525,481)"/>
<path d="M0 0 C0 4.62 0 9.24 0 14 C-4.62 14 -9.24 14 -14 14 C-14 8 -14 8 -12.20703125 5.6640625 C-11.41683594 4.99117187 -10.62664062 4.31828125 -9.8125 3.625 C-9.03519531 2.93664062 -8.25789062 2.24828125 -7.45703125 1.5390625 C-5 0 -5 0 0 0 Z " fill="#FEFEFE" transform="translate(195,181)"/>
<path d="M0 0 C3.63 0 7.26 0 11 0 C11 4.62 11 9.24 11 14 C7.37 14 3.74 14 0 14 C0 9.38 0 4.76 0 0 Z " fill="#FFFFFF" transform="translate(16,286)"/>
<path d="M0 0 C9.5 0.75 9.5 0.75 14 3 C14 5.97 14 8.94 14 12 C9.38 12 4.76 12 0 12 C0 8.04 0 4.08 0 0 Z " fill="#FDFEFD" transform="translate(241,573)"/>
<path d="M0 0 C6 0 6 0 8.3359375 2.046875 C9.00882813 2.93890625 9.68171875 3.8309375 10.375 4.75 C11.06335938 5.63171875 11.75171875 6.5134375 12.4609375 7.421875 C14 10 14 10 14 14 C9.38 14 4.76 14 0 14 C0 9.38 0 4.76 0 0 Z " fill="#FBFDFC" transform="translate(76,466)"/>
<path d="M0 0 C4.62 0 9.24 0 14 0 C14 4.62 14 9.24 14 14 C10.47107553 12.58843021 7.45137797 11.22615467 4.1875 9.375 C3.39730469 8.92898437 2.60710937 8.48296875 1.79296875 8.0234375 C1.20128906 7.68570313 0.60960937 7.34796875 0 7 C0 4.69 0 2.38 0 0 Z " fill="#FEFCFB" transform="translate(436,46)"/>
<path d="M0 0 C0 4.62 0 9.24 0 14 C-4.62 14 -9.24 14 -14 14 C-14 10.04 -14 6.08 -14 2 C-10 4 -10 4 -7 6 C-6.57847656 5.566875 -6.15695312 5.13375 -5.72265625 4.6875 C-5.17480469 4.130625 -4.62695312 3.57375 -4.0625 3 C-3.51722656 2.443125 -2.97195313 1.88625 -2.41015625 1.3125 C-1 0 -1 0 0 0 Z " fill="#FEFDFC" transform="translate(420,166)"/>
<path d="M0 0 C0 4.62 0 9.24 0 14 C-4.62 14 -9.24 14 -14 14 C-12.95529566 8.7764783 -12.2991394 7.75185116 -8.6875 4.1875 C-7.51767578 3.00220703 -7.51767578 3.00220703 -6.32421875 1.79296875 C-4 0 -4 0 0 0 Z " fill="#FDFDFE" transform="translate(510,496)"/>
<path d="M0 0 C3.96 0 7.92 0 12 0 C12 4.62 12 9.24 12 14 C9.69 14 7.38 14 5 14 C4.15675328 12.421924 3.32576082 10.8372958 2.5 9.25 C2.0359375 8.36828125 1.571875 7.4865625 1.09375 6.578125 C0 4 0 4 0 0 Z " fill="#FDFEFD" transform="translate(153,361)"/>
<path d="M0 0 C4.62 0 9.24 0 14 0 C14 2.64 14 5.28 14 8 C10.7 8 7.4 8 4 8 C4 9.98 4 11.96 4 14 C2.68 14 1.36 14 0 14 C0 9.38 0 4.76 0 0 Z " fill="#FFFFFF" transform="translate(301,241)"/>
<path d="M0 0 C10.17857143 2.94642857 10.17857143 2.94642857 14 5 C14 7.31 14 9.62 14 12 C9.38 12 4.76 12 0 12 C0 8.04 0 4.08 0 0 Z " fill="#FDFEFD" transform="translate(196,558)"/>
<path d="M0 0 C0 3.96 0 7.92 0 12 C-4.62 12 -9.24 12 -14 12 C-14 9.69 -14 7.38 -14 5 C-12.04350603 4.16235732 -10.08474444 3.33000941 -8.125 2.5 C-6.48917969 1.80390625 -6.48917969 1.80390625 -4.8203125 1.09375 C-2 0 -2 0 0 0 Z " fill="#FBFDFB" transform="translate(420,558)"/>
<path d="M0 0 C0 4.62 0 9.24 0 14 C-4.62 14 -9.24 14 -14 14 C-12.90844585 9.63378338 -11.63996792 8.05521777 -8.6875 4.75 C-7.90761719 3.85796875 -7.12773437 2.9659375 -6.32421875 2.046875 C-4 0 -4 0 0 0 Z " fill="#FEFEFE" transform="translate(495,511)"/>
<path d="M0 0 C4.31868852 1.72747541 6.44596131 2.91601906 9.8125 5.875 C10.60269531 6.55304687 11.39289063 7.23109375 12.20703125 7.9296875 C14 10 14 10 14 14 C9.38 14 4.76 14 0 14 C0 9.38 0 4.76 0 0 Z " fill="#FBFDFC" transform="translate(121,511)"/>
<path d="M0 0 C2.97 0 5.94 0 9 0 C9 4.62 9 9.24 9 14 C6.03 14 3.06 14 0 14 C0 9.38 0 4.76 0 0 Z " fill="#FEFEFE" transform="translate(141,286)"/>
<path d="M0 0 C0 4.62 0 9.24 0 14 C-4.29 14 -8.58 14 -13 14 C-11.39913969 9.99784922 -10.15354182 7.5165627 -7.625 4.1875 C-6.74714844 3.00220703 -6.74714844 3.00220703 -5.8515625 1.79296875 C-4 0 -4 0 0 0 Z " fill="#FEFCFC" transform="translate(180,196)"/>
<path d="M0 0 C1.32 0 2.64 0 4 0 C4 4.62 4 9.24 4 14 C-0.62 14 -5.24 14 -10 14 C-8.24479327 10.48958654 -7.18151183 8.9981958 -4.4375 6.4375 C-2.00373705 4.1656506 -1.07740206 3.23220618 0 0 Z " fill="#FEF9F8" transform="translate(491,91)"/>
<path d="M0 0 C4.2483704 1.0620926 4.89081852 1.57028065 7.5625 4.75 C8.43068359 5.76320313 8.43068359 5.76320313 9.31640625 6.796875 C11 9 11 9 14 14 C9.38 14 4.76 14 0 14 C0 9.38 0 4.76 0 0 Z " fill="#F9FCFA" transform="translate(91,481)"/>
<path d="M0 0 C3.3 0 6.6 0 10 0 C9.690625 1.381875 9.38125 2.76375 9.0625 4.1875 C8.33658844 7.45152786 7.6354358 10.71691503 7 14 C4.69 14 2.38 14 0 14 C0 9.38 0 4.76 0 0 Z " fill="#FEFDFB" transform="translate(31,211)"/>
<path d="M0 0 C4.62 0 9.24 0 14 0 C14 2.97 14 5.94 14 9 C12.41632253 8.85795259 10.83306682 8.71119847 9.25 8.5625 C8.36828125 8.48128906 7.4865625 8.40007813 6.578125 8.31640625 C4.30649548 8.03761535 2.20148177 7.61209423 0 7 C0 4.69 0 2.38 0 0 Z " fill="#FEFAF9" transform="translate(346,16)"/>
<path d="M0 0 C4.62 0 9.24 0 14 0 C14 2.64 14 5.28 14 8 C9.38 8 4.76 8 0 8 C0 5.36 0 2.72 0 0 Z " fill="#FFFFFF" transform="translate(541,241)"/>
<path d="M0 0 C4.62 0 9.24 0 14 0 C14 2.64 14 5.28 14 8 C9.38 8 4.76 8 0 8 C0 5.36 0 2.72 0 0 Z " fill="#FFFFFF" transform="translate(511,241)"/>
<path d="M0 0 C4.62 0 9.24 0 14 0 C14 2.64 14 5.28 14 8 C9.38 8 4.76 8 0 8 C0 5.36 0 2.72 0 0 Z " fill="#FFFFFF" transform="translate(481,241)"/>
<path d="M0 0 C4.62 0 9.24 0 14 0 C14 2.64 14 5.28 14 8 C9.38 8 4.76 8 0 8 C0 5.36 0 2.72 0 0 Z " fill="#FFFFFF" transform="translate(451,241)"/>
<path d="M0 0 C4.62 0 9.24 0 14 0 C14 2.64 14 5.28 14 8 C9.38 8 4.76 8 0 8 C0 5.36 0 2.72 0 0 Z " fill="#FFFFFF" transform="translate(421,241)"/>
<path d="M0 0 C4.62 0 9.24 0 14 0 C14 2.64 14 5.28 14 8 C9.38 8 4.76 8 0 8 C0 5.36 0 2.72 0 0 Z " fill="#FFFFFF" transform="translate(391,241)"/>
<path d="M0 0 C4.62 0 9.24 0 14 0 C14 2.64 14 5.28 14 8 C9.38 8 4.76 8 0 8 C0 5.36 0 2.72 0 0 Z " fill="#FFFFFF" transform="translate(361,241)"/>
<path d="M0 0 C4.62 0 9.24 0 14 0 C14 2.64 14 5.28 14 8 C9.38 8 4.76 8 0 8 C0 5.36 0 2.72 0 0 Z " fill="#FFFFFF" transform="translate(331,241)"/>
<path d="M0 0 C1.66014161 1.42297852 3.3197669 2.84656456 4.9765625 4.2734375 C6.31528821 5.41574785 7.6642017 6.54623537 9.0234375 7.6640625 C9.65507813 8.18742187 10.28671875 8.71078125 10.9375 9.25 C11.52402344 9.72953125 12.11054687 10.2090625 12.71484375 10.703125 C14 12 14 12 14 14 C9.38 14 4.76 14 0 14 C0 9.38 0 4.76 0 0 Z " fill="#FBFDFB" transform="translate(106,496)"/>
<path d="M0 0 C0 3.96 0 7.92 0 12 C-4.62 12 -9.24 12 -14 12 C-11.86161443 6.65403607 -11.11386599 5.98600324 -6.4375 3.1875 C-5.44621094 2.58292969 -4.45492187 1.97835937 -3.43359375 1.35546875 C-1 0 -1 0 0 0 Z " fill="#FEFBFB" transform="translate(225,153)"/>
<path d="M0 0 C4.62 0 9.24 0 14 0 C13 5 13 5 10.56640625 6.80078125 C9.57511719 7.29964844 8.58382812 7.79851563 7.5625 8.3125 C6.57378906 8.82425781 5.58507812 9.33601563 4.56640625 9.86328125 C2 11 2 11 0 11 C0 7.37 0 3.74 0 0 Z " fill="#FEFCFC" transform="translate(166,46)"/>
<path d="M0 0 C2.64 0 5.28 0 8 0 C8 4.62 8 9.24 8 14 C5.69 14 3.38 14 1 14 C-0.20568053 9.32798795 -0.09382426 4.78503708 0 0 Z " fill="#FEFEFD" transform="translate(142,316)"/>
<path d="M0 0 C0 4.62 0 9.24 0 14 C-4.62 14 -9.24 14 -14 14 C-2.28571429 0 -2.28571429 0 0 0 Z " fill="#FEFEFE" transform="translate(435,151)"/>
<path d="M0 0 C0 4.62 0 9.24 0 14 C-4.62 14 -9.24 14 -14 14 C-2.28571429 0 -2.28571429 0 0 0 Z " fill="#FEFEFE" transform="translate(450,136)"/>
<path d="M0 0 C4.62 0 9.24 0 14 0 C14 1.65 14 3.3 14 5 C12.42032193 5.67528223 10.83608097 6.33989694 9.25 7 C7.92742187 7.556875 7.92742187 7.556875 6.578125 8.125 C4 9 4 9 0 9 C0 6.03 0 3.06 0 0 Z " fill="#FDFEFE" transform="translate(361,451)"/>
<path d="M0 0 C4.62 0 9.24 0 14 0 C14 2.97 14 5.94 14 9 C8.72250715 8.46148032 4.74354436 7.22656164 0 5 C0 3.35 0 1.7 0 0 Z " fill="#FAFDFB" transform="translate(241,451)"/>
<path d="M0 0 C4.62 0 9.24 0 14 0 C14 2.31 14 4.62 14 7 C9.38 7.33 4.76 7.66 0 8 C0 5.36 0 2.72 0 0 Z " fill="#FEFBFA" transform="translate(256,16)"/>
<path d="M0 0 C0 2.31 0 4.62 0 7 C-4.62 7 -9.24 7 -14 7 C-14 5.02 -14 3.04 -14 1 C-9.27685687 0.22887459 -4.78478822 -0.09764874 0 0 Z " fill="#FDFEFD" transform="translate(345,578)"/>
<path d="M0 0 C0 4.29 0 8.58 0 13 C-4.29 13 -8.58 13 -13 13 C-2.08 0 -2.08 0 0 0 Z " fill="#FFFFFF" transform="translate(465,122)"/>
<path d="M0 0 C0 4.29 0 8.58 0 13 C-4.29 13 -8.58 13 -13 13 C-2.08 0 -2.08 0 0 0 Z " fill="#FFFFFF" transform="translate(480,107)"/>
<path d="M0 0 C6.93 0.495 6.93 0.495 14 1 C14 2.98 14 4.96 14 7 C9.38 7 4.76 7 0 7 C0 4.69 0 2.38 0 0 Z " fill="#FDFEFD" transform="translate(271,578)"/>
<path d="M0 0 C1.65 0 3.3 0 5 0 C5 4.62 5 9.24 5 14 C2.69 14 0.38 14 -2 14 C-1.85795259 12.41632253 -1.71119847 10.83306682 -1.5625 9.25 C-1.48128906 8.36828125 -1.40007813 7.4865625 -1.31640625 6.578125 C-1.03761535 4.30649548 -0.61209423 2.20148177 0 0 Z " fill="#F8FAFE" transform="translate(565,376)"/>
<path d="M0 0 C0.99 0 1.98 0 3 0 C3 4.62 3 9.24 3 14 C0.36 14 -2.28 14 -5 14 C-4.46515599 8.65155992 -2.53309233 4.64203897 0 0 Z " fill="#F9FBFE" transform="translate(552,421)"/>
<path d="M0 0 C0.99 0 1.98 0 3 0 C3 4.62 3 9.24 3 14 C1.02 14 -0.96 14 -3 14 C-2.88512252 12.41590006 -2.75765492 10.83271037 -2.625 9.25 C-2.55539063 8.36828125 -2.48578125 7.4865625 -2.4140625 6.578125 C-2.00149945 4.00933618 -1.28839043 2.24158985 0 0 Z " fill="#FEFEFC" transform="translate(147,256)"/>
<path d="M0 0 C4.62 0 9.24 0 14 0 C14 1.65 14 3.3 14 5 C9.38 5 4.76 5 0 5 C0 3.35 0 1.7 0 0 Z " fill="#FFFFFF" transform="translate(301,580)"/>
<path d="M0 0 C4.29 0 8.58 0 13 0 C13 2.97 13 5.94 13 9 C7.97290493 7.42903279 3.97133531 4.38006951 0 1 C0 0.67 0 0.34 0 0 Z " fill="#FEF9F8" transform="translate(452,61)"/>
<path d="M0 0 C3 1 3 1 4.16796875 3.1796875 C4.50441406 4.06914062 4.84085938 4.95859375 5.1875 5.875 C5.53167969 6.75929688 5.87585937 7.64359375 6.23046875 8.5546875 C7 11 7 11 7 14 C4.69 14 2.38 14 0 14 C0 9.38 0 4.76 0 0 Z " fill="#FEFCF7" transform="translate(46,406)"/>
<path d="M0 0 C2.64 0 5.28 0 8 0 C6.58795406 5.26308032 4.31008693 8.7562988 1 13 C0.67 13 0.34 13 0 13 C0 8.71 0 4.42 0 0 Z " fill="#FEF9F9" transform="translate(61,151)"/>
<path d="M0 0 C4.62 0 9.24 0 14 0 C14 1.98 14 3.96 14 6 C8.72250715 5.46148032 4.74354436 4.22656164 0 2 C0 1.34 0 0.68 0 0 Z " fill="#FEF8F7" transform="translate(391,31)"/>
<path d="M0 0 C0.99 0 1.98 0 3 0 C3.99 4.62 4.98 9.24 6 14 C4.02 14 2.04 14 0 14 C0 9.38 0 4.76 0 0 Z " fill="#FEFEFC" transform="translate(31,361)"/>
<path d="M0 0 C4.62 0 9.24 0 14 0 C14 1.65 14 3.3 14 5 C7.07 4.505 7.07 4.505 0 4 C0 2.68 0 1.36 0 0 Z " fill="#FEFEFE" transform="translate(316,16)"/>
<path d="M0 0 C3.09305422 0.60903059 5.19639762 1.59868803 7.75 3.4375 C8.36359375 3.86933594 8.9771875 4.30117187 9.609375 4.74609375 C10.29773438 5.36677734 10.29773438 5.36677734 11 6 C11 6.66 11 7.32 11 8 C7.37 8 3.74 8 0 8 C0 5.36 0 2.72 0 0 Z " fill="#FEF9F9" transform="translate(391,157)"/>
<path d="M0 0 C1.32 0 2.64 0 4 0 C4 4.62 4 9.24 4 14 C2.68 14 1.36 14 0 14 C0 9.38 0 4.76 0 0 Z " fill="#FFFFFF" transform="translate(301,331)"/>
<path d="M0 0 C1.32 0 2.64 0 4 0 C4 4.62 4 9.24 4 14 C2.68 14 1.36 14 0 14 C0 9.38 0 4.76 0 0 Z " fill="#FFFFFF" transform="translate(301,301)"/>
<path d="M0 0 C1.32 0 2.64 0 4 0 C4 4.62 4 9.24 4 14 C2.68 14 1.36 14 0 14 C0 9.38 0 4.76 0 0 Z " fill="#FFFFFF" transform="translate(301,271)"/>
<path d="M0 0 C4.62 0 9.24 0 14 0 C14 1.32 14 2.64 14 4 C9.38 4 4.76 4 0 4 C0 2.68 0 1.36 0 0 Z " fill="#FEFEFE" transform="translate(301,131)"/>
<path d="M0 0 C4.62 0 9.24 0 14 0 C14 1.32 14 2.64 14 4 C9.38 4 4.76 4 0 4 C0 2.68 0 1.36 0 0 Z " fill="#FFFFFF" transform="translate(286,16)"/>
<path d="M0 0 C4.62 0 9.24 0 14 0 C11.81385576 2.18614424 10.46120051 2.68256535 7.5625 3.625 C6.38880859 4.01558594 6.38880859 4.01558594 5.19140625 4.4140625 C3 5 3 5 0 5 C0 3.35 0 1.7 0 0 Z " fill="#FEF8F8" transform="translate(211,31)"/>
<path d="M0 0 C0 2.97 0 5.94 0 9 C-1.98 9 -3.96 9 -6 9 C-5.63668534 5.73016809 -4.2451062 0 0 0 Z " fill="#FEFAF9" transform="translate(165,216)"/>
<path d="M0 0 C1.32 0 2.64 0 4 0 C3.01 3.96 2.02 7.92 1 12 C0.67 12 0.34 12 0 12 C0 8.04 0 4.08 0 0 Z " fill="#FAFCFE" transform="translate(451,361)"/>
<path d="M0 0 C2.64 0 5.28 0 8 0 C5.47211993 2.79872437 3.79588866 4.45773019 0 5 C0 3.35 0 1.7 0 0 Z " fill="#FEF8F8" transform="translate(151,61)"/>
<path d="M0 0 C2.31 0 4.62 0 7 0 C7 1.98 7 3.96 7 6 C1.125 2.25 1.125 2.25 0 0 Z " fill="#FEF9F8" transform="translate(473,76)"/>
<path d="M0 0 C0 1.32 0 2.64 0 4 C-2.64 4 -5.28 4 -8 4 C-5.29881977 1.17603885 -4.05589853 0 0 0 Z " fill="#FEFBFB" transform="translate(240,146)"/>
<path d="M0 0 C2.02045442 0.60183749 4.02111039 1.27306096 6 2 C6.33 2.66 6.66 3.32 7 4 C4.69 4 2.38 4 0 4 C0 2.68 0 1.36 0 0 Z " fill="#F9FCFA" transform="translate(181,551)"/>
</svg>
